<?xml version="1.0" encoding="utf-8"?>
<!-- Generator: Adobe Illustrator 26.1.0, SVG Export Plug-In . SVG Version: 6.00 Build 0)  -->
<svg version="1.1" id="Capa_1" xmlns="http://www.w3.org/2000/svg" xmlns:xlink="http://www.w3.org/1999/xlink" x="0px" y="0px"
	 viewBox="0 0 50 70" style="enable-background:new 0 0 50 70;" xml:space="preserve">
<style type="text/css">
	.st0{fill:#FF8000;}
	.st1{fill:#7B3F00;}
	.st2{fill:#AD8762;}
	.st3{fill:#84817F;}
	.st4{fill:#AD7445;}
</style>
<rect y="0" class="st0" width="50" height="2.3"/>
<rect class="st0" width="50" height="3.5"/>
<rect y="66.5" class="st0" width="50" height="3.5"/>
<rect y="3.5" class="st0" width="2" height="63"/>
<rect x="48" y="3.5" class="st0" width="2" height="63"/>
<path class="st1" d="M5,55.4V60h40v-4.7H5z M23.6,58.9H7.7v-2.3h15.9C23.6,56.5,23.6,58.9,23.6,58.9z M42.3,58.9H26.4v-2.3h15.9
	L42.3,58.9L42.3,58.9z"/>
<rect x="5" y="8.8" class="st2" width="40" height="46.6"/>
<rect x="2" y="60" class="st3" width="46" height="6.5"/>
<rect x="6" y="63" class="st3" width="5" height="3.5"/>
<rect x="44" y="60" class="st3" width="4" height="6.5"/>
<rect x="39" y="63" class="st3" width="5" height="3.5"/>
<rect x="5" y="15.1" class="st4" width="40" height="1.2"/>
<rect x="5" y="23.3" class="st4" width="40" height="1.2"/>
<rect x="5" y="31.5" class="st4" width="40" height="1.2"/>
<rect x="5" y="39.6" class="st4" width="40" height="1.2"/>
<rect x="5" y="47.6" class="st4" width="40" height="1.2"/>
<rect x="24.5" y="8.8" class="st4" width="1" height="7"/>
<rect x="24.5" y="24.5" class="st4" width="1" height="7"/>
<rect x="24" y="40.8" class="st4" width="1" height="7"/>
<rect x="17.8" y="16.3" class="st4" width="1" height="7"/>
<rect x="31.3" y="16.3" class="st4" width="1" height="7"/>
<rect x="31.3" y="32.6" class="st4" width="1" height="7"/>
<rect x="17.8" y="32.6" class="st4" width="1" height="7"/>
<rect x="31.3" y="48.2" class="st4" width="1" height="7"/>
<rect x="17.8" y="48.2" class="st4" width="1" height="7"/>
</svg>
