<?xml version="1.0" encoding="utf-8"?>
<!-- Generator: Adobe Illustrator 16.0.3, SVG Export Plug-In . SVG Version: 6.00 Build 0)  -->
<!DOCTYPE svg PUBLIC "-//W3C//DTD SVG 1.1//EN" "http://www.w3.org/Graphics/SVG/1.1/DTD/svg11.dtd">
<svg version="1.1" id="Capa_1" xmlns="http://www.w3.org/2000/svg" xmlns:xlink="http://www.w3.org/1999/xlink" x="0px" y="0px"
	 width="70px" height="90px" viewBox="-10 -15 70 90" enable-background="new -10 -15 70 90" xml:space="preserve">
<rect x="-10" y="-14.953" fill="#FF8000" width="70" height="2.999"/>
<rect x="-10" y="-15" fill="#FF8000" width="70" height="4.498"/>
<rect x="-10" y="70.502" fill="#FF8000" width="70" height="4.498"/>
<rect x="-10" y="-10.502" fill="#FF8000" width="2.8" height="81.004"/>
<rect x="57.2" y="-10.502" fill="#FF8000" width="2.8" height="81.004"/>
<path fill="#7B3F00" d="M-3,56.181v5.997h56v-5.997H-3z M23.092,60.679H0.819V57.68h22.273V60.679z M49.183,60.679H26.908V57.68
	h22.274V60.679z"/>
<rect x="-3" y="-3.748" fill="#AD8762" width="56" height="59.97"/>
<rect x="-7.2" y="62.178" fill="#84817F" width="5.6" height="8.324"/>
<rect x="-1.644" y="66.005" fill="#84817F" width="7" height="4.497"/>
<rect x="51.6" y="62.178" fill="#84817F" width="5.601" height="8.324"/>
<rect x="44.6" y="66.005" fill="#84817F" width="7" height="4.497"/>
<rect x="-3.001" y="4.454" fill="#AD7445" width="56.001" height="1.499"/>
<rect x="-3.001" y="14.949" fill="#AD7445" width="56.001" height="1.499"/>
<rect x="-3.001" y="25.487" fill="#AD7445" width="56.001" height="1.5"/>
<rect x="-3.001" y="35.944" fill="#AD7445" width="56.001" height="1.499"/>
<rect x="-3.001" y="46.186" fill="#AD7445" width="56.001" height="1.499"/>
<rect x="24.3" y="-3.748" fill="#AD7445" width="1.4" height="9.037"/>
<rect x="24.3" y="16.448" fill="#AD7445" width="1.4" height="9.038"/>
<rect x="23.6" y="37.443" fill="#AD7445" width="1.4" height="9.036"/>
<rect x="14.85" y="5.953" fill="#AD7445" width="1.4" height="9.038"/>
<rect x="33.867" y="5.953" fill="#AD7445" width="1.4" height="9.038"/>
<rect x="33.867" y="26.942" fill="#AD7445" width="1.4" height="9.037"/>
<rect x="14.85" y="26.942" fill="#AD7445" width="1.4" height="9.037"/>
<rect x="33.867" y="46.934" fill="#AD7445" width="1.4" height="9.036"/>
<rect x="14.852" y="46.934" fill="#AD7445" width="1.4" height="9.036"/>
</svg>
