<?xml version="1.0" encoding="utf-8"?>
<!-- Generator: Adobe Illustrator 16.0.3, SVG Export Plug-In . SVG Version: 6.00 Build 0)  -->
<!DOCTYPE svg PUBLIC "-//W3C//DTD SVG 1.1//EN" "http://www.w3.org/Graphics/SVG/1.1/DTD/svg11.dtd">
<svg version="1.1" id="Capa_1" xmlns="http://www.w3.org/2000/svg" xmlns:xlink="http://www.w3.org/1999/xlink" x="0px" y="0px"
	 width="50px" height="50px" viewBox="0 0 50 50" enable-background="new 0 0 50 50" xml:space="preserve">
<g>
	<rect x="0.002" fill="#F88011" width="4" height="50"/>
	<rect x="46.003" fill="#F88011" width="4" height="50"/>
</g>
<g>
	<rect x="5" fill="#84817F" width="4.495" height="50"/>
	<rect x="40.506" fill="#84817F" width="4.494" height="50"/>
	<rect x="7.661" fill="#8E8D8D" width="1.833" height="50"/>
	<rect x="40.504" fill="#8E8D8D" width="1.834" height="50"/>
	<rect x="4.003" y="45" fill="#F88011" width="1.003" height="2.5"/>
	<rect x="45" y="2.5" fill="#F88011" width="1.003" height="2.5"/>
	<rect x="4.003" y="2.5" fill="#F88011" width="1.003" height="2.5"/>
	<rect x="45" y="45" fill="#F88011" width="1.003" height="2.5"/>
</g>
<rect x="5" y="5" fill="#AC8762" width="40" height="40"/>
<rect x="24.251" y="18.417" fill="#AD7445" width="1.499" height="11.917"/>
<rect x="5.003" y="19.665" fill="#AD7445" width="39.994" height="1.5"/>
<rect x="5.003" y="28.834" fill="#AD7445" width="39.994" height="1.5"/>
<rect x="14.256" y="5" fill="#AD7445" width="1.5" height="16.166"/>
<rect x="24.25" y="5" fill="#AD7445" width="1.5" height="16.166"/>
<rect x="34.256" y="5" fill="#AD7445" width="1.5" height="16.166"/>
<rect x="14.256" y="28.834" fill="#AD7445" width="1.5" height="16.166"/>
<rect x="24.25" y="28.834" fill="#AD7445" width="1.5" height="16.165"/>
<rect x="34.256" y="28.834" fill="#AD7445" width="1.5" height="16.165"/>
</svg>
