<?xml version="1.0" encoding="utf-8"?>
<!-- Generator: Adobe Illustrator 16.0.3, SVG Export Plug-In . SVG Version: 6.00 Build 0)  -->
<!DOCTYPE svg PUBLIC "-//W3C//DTD SVG 1.1//EN" "http://www.w3.org/Graphics/SVG/1.1/DTD/svg11.dtd">
<svg version="1.1" id="Capa_1" xmlns="http://www.w3.org/2000/svg" xmlns:xlink="http://www.w3.org/1999/xlink" x="0px" y="0px"
	 width="70px" height="224px" viewBox="0 0 70 224" enable-background="new 0 0 70 224" xml:space="preserve">
<g id="POLYLINE">
	
		<polyline fill="none" stroke="#000000" stroke-width="0" stroke-linecap="round" stroke-linejoin="round" stroke-miterlimit="10" points="
		24.806,0.102 45.006,0.102 45.006,193.195 24.806,193.195 24.806,0.102 	"/>
</g>
<g id="HATCH">
	<polygon fill="#E3AC2F" points="24.806,0.102 45.006,0.102 45.006,193.195 24.806,193.195 24.806,0.102 	"/>
</g>
<g id="INSERT_2_">
	<g id="POLYLINE_1_">
		
			<polyline fill="none" stroke="#000000" stroke-width="0" stroke-linecap="round" stroke-linejoin="round" stroke-miterlimit="10" points="
			45.743,214.117 23.785,214.117 23.785,193.195 45.743,193.195 45.743,214.117 		"/>
	</g>
	<g id="HATCH_1_">
		<polygon fill="#3B3C3B" points="45.743,214.117 23.785,214.117 23.785,193.195 45.743,193.195 45.743,214.117 		"/>
	</g>
	<g id="POLYLINE_2_">
		
			<polyline fill="none" stroke="#000000" stroke-width="0" stroke-linecap="round" stroke-linejoin="round" stroke-miterlimit="10" points="
			44.469,216.92 35.968,216.92 35.968,215.519 44.469,215.519 44.469,216.92 		"/>
	</g>
	<g id="HATCH_2_">
		<polygon fill="#3B3C3B" points="44.469,216.92 35.968,216.92 35.968,215.519 44.469,215.519 44.469,216.92 		"/>
	</g>
	<g id="POLYLINE_3_">
		
			<polyline fill="none" stroke="#000000" stroke-width="0" stroke-linecap="round" stroke-linejoin="round" stroke-miterlimit="10" points="
			44.469,214.117 38.66,214.117 38.66,215.519 44.469,215.519 44.469,214.117 		"/>
	</g>
	<g id="HATCH_3_">
		<polygon fill="#3B3C3B" points="44.469,214.117 38.66,214.117 38.66,215.519 44.469,215.519 44.469,214.117 		"/>
	</g>
	<g id="POLYLINE_4_">
		
			<polyline fill="none" stroke="#000000" stroke-width="0" stroke-linecap="round" stroke-linejoin="round" stroke-miterlimit="10" points="
			33.701,216.92 25.201,216.92 25.201,215.519 33.701,215.519 33.701,216.92 		"/>
	</g>
	<g id="HATCH_4_">
		<polygon fill="#3B3C3B" points="33.701,216.92 25.201,216.92 25.201,215.519 33.701,215.519 33.701,216.92 		"/>
	</g>
	<g id="POLYLINE_5_">
		
			<polyline fill="none" stroke="#000000" stroke-width="0" stroke-linecap="round" stroke-linejoin="round" stroke-miterlimit="10" points="
			31.01,214.117 25.201,214.117 25.201,215.519 31.01,215.519 31.01,214.117 		"/>
	</g>
	<g id="HATCH_5_">
		<polygon fill="#3B3C3B" points="31.01,214.117 25.201,214.117 25.201,215.519 31.01,215.519 31.01,214.117 		"/>
	</g>
	<g id="INSERT_1_">
		<g id="INSERT">
			<g id="SPLINE">
				
					<path fill="none" stroke="#000000" stroke-width="0" stroke-linecap="round" stroke-linejoin="round" stroke-miterlimit="10" d="
					M52.331,209.793c-0.009,0.063-0.014,0.109-0.021,0.166c-0.236,0-0.471,0-0.715,0c-0.009-0.049-0.018-0.1-0.03-0.166
					c-0.054,0-0.108,0-0.164,0c-0.578,0-1.153,0.001-1.729-0.003c-0.054,0-0.129-0.008-0.153-0.043
					c-0.14-0.194-0.327-0.131-0.507-0.125c-0.1,0.004-0.201,0.017-0.314,0.025c-0.004-0.116-0.009-0.213-0.016-0.318
					c-0.06-0.007-0.112-0.013-0.184-0.021c-0.004-0.096-0.009-0.192-0.013-0.315c-0.354,0-0.709,0-1.071,0
					c0-0.677,0.002-1.325-0.003-1.974c-0.002-0.094-0.006-0.226-0.062-0.274c-0.155-0.139-0.098-0.326-0.142-0.486
					c-0.047-0.172-0.06-0.354-0.078-0.532c-0.042-0.416-0.075-0.834-0.112-1.251c-0.005-0.044-0.005-0.089-0.005-0.132
					c0-0.463-0.016-0.926,0.005-1.387c0.018-0.502,0.058-1.004,0.11-1.503c0.033-0.312,0.091-0.623,0.171-0.926
					c0.077-0.297,0.263-0.537,0.46-0.762c0.142-0.163,0.295-0.317,0.437-0.48c0.024-0.031,0.035-0.087,0.035-0.131
					c0.005-0.274,0.002-0.547,0.002-0.788c0.078-0.105,0.269,0.04,0.25-0.184c-0.055-0.009-0.1-0.016-0.154-0.023
					c0-0.267,0-0.529,0-0.795c0.046,0,0.093,0,0.157,0c0-0.242,0-0.479,0-0.723c0.075-0.01,0.128-0.017,0.199-0.024
					c0-0.276,0-0.55,0-0.829c0.062-0.01,0.105-0.017,0.161-0.026c0-0.332,0-0.662,0-1.013c-0.117,0-0.228,0-0.358,0
					c0-0.248,0.002-0.477,0-0.706c0-0.064,0.022-0.144-0.08-0.159c-0.013-0.002-0.03-0.056-0.03-0.085
					c-0.003-0.285-0.003-0.571-0.003-0.855c0-0.024,0.007-0.065,0.016-0.068c0.157-0.041,0.091-0.171,0.096-0.265
					c0.009-0.186,0.002-0.372,0.002-0.568c0.828,0,1.643,0,2.477,0c0,0.224-0.002,0.444,0,0.663c0,0.064-0.021,0.142,0.08,0.161
					c0.016,0.002,0.031,0.064,0.031,0.098c0.002,0.271,0.004,0.542-0.003,0.812c0,0.041-0.042,0.079-0.063,0.121
					c-0.016,0.034-0.042,0.072-0.045,0.109c-0.004,0.177-0.002,0.354,0,0.53c0,0.042,0.012,0.089,0.031,0.125
					c0.171,0.323,0.268,0.664,0.252,1.036c0,0.019,0.007,0.038,0.012,0.065c0.771,0,1.538,0,2.319,0
					c0.005-0.077,0.012-0.154,0.018-0.242c0.419,0,0.837,0,1.269,0c0.005,0.075,0.012,0.151,0.018,0.252
					c0.075,0,0.15,0.006,0.224-0.001c0.103-0.011,0.142,0.026,0.138,0.14c-0.007,0.23-0.002,0.461-0.002,0.698
					c0.055,0.011,0.1,0.021,0.17,0.034c0,0.168,0.009,0.344-0.002,0.518c-0.007,0.143,0.009,0.245,0.19,0.213
					c0,0.264,0,0.518,0,0.78c-0.031,0.006-0.064,0.005-0.091,0.019c-0.035,0.019-0.064,0.05-0.096,0.075
					c0.036,0.021,0.069,0.055,0.104,0.063c0.049,0.012,0.102,0.003,0.179,0.003c0,0.212,0.016,0.413-0.004,0.61
					c-0.026,0.254,0.06,0.43,0.239,0.599c0.318,0.301,0.586,0.648,0.722,1.083c0.06,0.192,0.084,0.397,0.119,0.598
					c0.02,0.109,0.026,0.221,0.04,0.327c0.222,0.048,0.228,0.043,0.23-0.173c0-0.249,0-0.249,0.232-0.249
					c0.513,0,1.029,0,1.542-0.001c0.069,0,0.151,0.021,0.155-0.096c0.002-0.016,0.029-0.044,0.044-0.045
					c0.166-0.01,0.335-0.033,0.479,0.076c0.091,0.069,0.144,0.158,0.144,0.287c-0.004,2.005-0.006,4.012-0.009,6.018
					c-0.002,0.173-0.13,0.31-0.303,0.32c-0.108,0.006-0.217,0.001-0.332,0.001c-0.014-0.046-0.022-0.086-0.038-0.144
					c-0.626,0-1.257,0-1.905,0c0-0.663,0-1.309,0-1.966c-0.091,0-0.162,0-0.248,0c0,0.332,0,0.66,0,0.981
					c-0.199,0.081-0.316,0.259-0.319,0.474c0,0.648,0,1.298,0,1.97c-0.358,0-0.708,0-1.068,0c-0.007,0.118-0.009,0.215-0.016,0.32
					c-0.051,0.008-0.1,0.016-0.155,0.025c-0.007,0.103-0.011,0.198-0.016,0.313c-0.199-0.011-0.39-0.027-0.582-0.028
					c-0.053,0-0.126,0.022-0.159,0.063c-0.08,0.097-0.171,0.116-0.286,0.115c-0.573-0.005-1.144-0.001-1.715-0.001
					C52.438,209.793,52.387,209.793,52.331,209.793z"/>
			</g>
			<g id="HATCH_6_">
				<path fill-rule="evenodd" clip-rule="evenodd" fill="#3B3C3B" d="M52.331,209.793c-0.009,0.063-0.014,0.109-0.021,0.166
					c-0.236,0-0.471,0-0.715,0c-0.009-0.049-0.018-0.1-0.03-0.166c-0.054,0-0.108,0-0.164,0c-0.578,0-1.153,0.001-1.729-0.003
					c-0.054,0-0.129-0.008-0.153-0.043c-0.14-0.194-0.327-0.131-0.507-0.125c-0.1,0.004-0.201,0.017-0.314,0.025
					c-0.004-0.116-0.009-0.213-0.016-0.318c-0.06-0.007-0.112-0.013-0.184-0.021c-0.004-0.096-0.009-0.192-0.013-0.315
					c-0.354,0-0.709,0-1.071,0c0-0.677,0.002-1.325-0.003-1.974c-0.002-0.094-0.006-0.226-0.062-0.274
					c-0.155-0.139-0.098-0.326-0.142-0.486c-0.047-0.172-0.06-0.354-0.078-0.532c-0.042-0.416-0.075-0.834-0.112-1.251
					c-0.005-0.044-0.005-0.089-0.005-0.132c0-0.463-0.016-0.926,0.005-1.387c0.018-0.502,0.058-1.004,0.11-1.503
					c0.033-0.312,0.091-0.623,0.171-0.926c0.077-0.297,0.263-0.537,0.46-0.762c0.142-0.163,0.295-0.317,0.437-0.48
					c0.024-0.031,0.035-0.087,0.035-0.131c0.005-0.274,0.002-0.547,0.002-0.788c0.078-0.105,0.269,0.04,0.25-0.184
					c-0.055-0.009-0.1-0.016-0.154-0.023c0-0.267,0-0.529,0-0.795c0.046,0,0.093,0,0.157,0c0-0.242,0-0.479,0-0.723
					c0.075-0.01,0.128-0.017,0.199-0.024c0-0.276,0-0.55,0-0.829c0.062-0.01,0.105-0.017,0.161-0.026c0-0.332,0-0.662,0-1.013
					c-0.117,0-0.228,0-0.358,0c0-0.248,0.002-0.477,0-0.706c0-0.064,0.022-0.144-0.08-0.159c-0.013-0.002-0.03-0.056-0.03-0.085
					c-0.003-0.285-0.003-0.571-0.003-0.855c0-0.024,0.007-0.065,0.016-0.068c0.157-0.041,0.091-0.171,0.096-0.265
					c0.009-0.186,0.002-0.372,0.002-0.568c0.828,0,1.643,0,2.477,0c0,0.224-0.002,0.444,0,0.663c0,0.064-0.021,0.142,0.08,0.161
					c0.016,0.002,0.031,0.064,0.031,0.098c0.002,0.271,0.004,0.542-0.003,0.812c0,0.041-0.042,0.079-0.063,0.121
					c-0.016,0.034-0.042,0.072-0.045,0.109c-0.004,0.177-0.002,0.354,0,0.53c0,0.042,0.012,0.089,0.031,0.125
					c0.171,0.323,0.268,0.664,0.252,1.036c0,0.019,0.007,0.038,0.012,0.065c0.771,0,1.538,0,2.319,0
					c0.005-0.077,0.012-0.154,0.018-0.242c0.419,0,0.837,0,1.269,0c0.005,0.075,0.012,0.151,0.018,0.252
					c0.075,0,0.15,0.006,0.224-0.001c0.103-0.011,0.142,0.026,0.138,0.14c-0.007,0.23-0.002,0.461-0.002,0.698
					c0.055,0.011,0.1,0.021,0.17,0.034c0,0.168,0.009,0.344-0.002,0.518c-0.007,0.143,0.009,0.245,0.19,0.213
					c0,0.264,0,0.518,0,0.78c-0.031,0.006-0.064,0.005-0.091,0.019c-0.035,0.019-0.064,0.05-0.096,0.075
					c0.036,0.021,0.069,0.055,0.104,0.063c0.049,0.012,0.102,0.003,0.179,0.003c0,0.212,0.016,0.413-0.004,0.61
					c-0.026,0.254,0.06,0.43,0.239,0.599c0.318,0.301,0.586,0.648,0.722,1.083c0.06,0.192,0.084,0.397,0.119,0.598
					c0.02,0.109,0.026,0.221,0.04,0.327c0.222,0.048,0.228,0.043,0.23-0.173c0-0.249,0-0.249,0.232-0.249
					c0.513,0,1.029,0,1.542-0.001c0.069,0,0.151,0.021,0.155-0.096c0.002-0.016,0.029-0.044,0.044-0.045
					c0.166-0.01,0.335-0.033,0.479,0.076c0.091,0.069,0.144,0.158,0.144,0.287c-0.004,2.005-0.006,4.012-0.009,6.018
					c-0.002,0.173-0.13,0.31-0.303,0.32c-0.108,0.006-0.217,0.001-0.332,0.001c-0.014-0.046-0.022-0.086-0.038-0.144
					c-0.626,0-1.257,0-1.905,0c0-0.663,0-1.309,0-1.966c-0.091,0-0.162,0-0.248,0c0,0.332,0,0.66,0,0.981
					c-0.199,0.081-0.316,0.259-0.319,0.474c0,0.648,0,1.298,0,1.97c-0.358,0-0.708,0-1.068,0c-0.007,0.118-0.009,0.215-0.016,0.32
					c-0.051,0.008-0.1,0.016-0.155,0.025c-0.007,0.103-0.011,0.198-0.016,0.313c-0.199-0.011-0.39-0.027-0.582-0.028
					c-0.053,0-0.126,0.022-0.159,0.063c-0.08,0.097-0.171,0.116-0.286,0.115c-0.573-0.005-1.144-0.001-1.715-0.001
					C52.438,209.793,52.387,209.793,52.331,209.793z"/>
			</g>
		</g>
		<g id="POLYLINE_6_">
			
				<polyline fill="none" stroke="#000000" stroke-width="0" stroke-linecap="round" stroke-linejoin="round" stroke-miterlimit="10" points="
				45.743,201.949 49.214,201.949 49.214,206.89 45.743,206.89 45.743,201.949 			"/>
		</g>
		<g id="HATCH_7_">
			<polygon fill-rule="evenodd" clip-rule="evenodd" fill="#3B3C3B" points="45.743,201.949 49.214,201.949 49.214,206.89 
				45.743,206.89 45.743,201.949 			"/>
		</g>
	</g>
	<g id="POLYLINE_7_">
		
			<polyline fill="none" stroke="#000000" stroke-width="0" stroke-linecap="round" stroke-linejoin="round" stroke-miterlimit="10" points="
			23.785,209.25 22.935,209.25 16.56,212.348 16.56,214.818 19.322,215.15 19.18,213.232 23.785,213.159 23.785,209.25 		"/>
	</g>
	<g id="HATCH_8_">
		<polygon fill-rule="evenodd" clip-rule="evenodd" fill="#3B3C3B" points="23.785,209.25 22.935,209.25 16.56,212.348 
			16.56,214.818 19.322,215.15 19.18,213.232 23.785,213.159 23.785,209.25 		"/>
	</g>
	<g id="POLYLINE_8_">
		
			<polyline fill="none" stroke="#000000" stroke-width="0" stroke-linecap="round" stroke-linejoin="round" stroke-miterlimit="10" points="
			45.602,209.25 46.452,209.25 52.827,212.348 52.827,214.818 50.064,215.15 50.206,213.232 45.602,213.159 45.602,209.25 		"/>
	</g>
	<g id="HATCH_9_">
		<polygon fill-rule="evenodd" clip-rule="evenodd" fill="#3B3C3B" points="45.602,209.25 46.452,209.25 52.827,212.348 
			52.827,214.818 50.064,215.15 50.206,213.232 45.602,213.159 45.602,209.25 		"/>
	</g>
</g>
<g id="POLYLINE_9_">
	
		<polyline fill="none" stroke="#000000" stroke-width="0" stroke-linecap="round" stroke-linejoin="round" stroke-miterlimit="10" points="
		63.993,188.919 45.627,188.919 45.261,122 63.626,122 63.993,188.919 	"/>
</g>
<g id="HATCH_10_">
	<polygon fill-rule="evenodd" clip-rule="evenodd" fill="#817F80" points="63.806,188.919 45.006,188.919 45.006,122 63.806,122 
		63.806,188.919 	"/>
</g>
<g id="POLYLINE_10_">
	
		<polyline fill="none" stroke="#000000" stroke-width="0" stroke-linecap="round" stroke-linejoin="round" stroke-miterlimit="10" points="
		24.806,138.573 12.145,138.573 12.145,136.508 24.806,136.508 24.806,138.573 	"/>
</g>
<g id="HATCH_11_">
	<polygon fill-rule="evenodd" clip-rule="evenodd" fill="#817F80" points="24.806,138.573 12.145,138.573 12.145,136.508 
		24.806,136.508 24.806,138.573 	"/>
</g>
<g id="POLYLINE_11_">
	
		<polyline fill="none" stroke="#000000" stroke-width="0" stroke-linecap="round" stroke-linejoin="round" stroke-miterlimit="10" points="
		13.089,189.511 12.145,189.511 12.145,138.573 13.089,138.573 13.089,189.511 	"/>
</g>
<g id="HATCH_12_">
	<polygon fill-rule="evenodd" clip-rule="evenodd" fill="#817F80" points="13.089,189.511 12.145,189.511 12.145,138.573 
		13.089,138.573 13.089,189.511 	"/>
</g>
<g id="POLYLINE_12_">
	
		<polyline fill="none" stroke="#000000" stroke-width="0" stroke-linecap="round" stroke-linejoin="round" stroke-miterlimit="10" points="
		24.806,189.511 13.089,189.511 13.089,184.987 24.806,184.987 24.806,189.511 	"/>
</g>
<g id="HATCH_13_">
	<polygon fill-rule="evenodd" clip-rule="evenodd" fill="#817F80" points="24.806,189.511 13.089,189.511 13.089,184.987 
		24.806,184.987 24.806,189.511 	"/>
</g>
<g id="POLYLINE_13_">
	
		<polyline fill="none" stroke="#000000" stroke-width="0" stroke-linecap="round" stroke-linejoin="round" stroke-miterlimit="10" points="
		18.476,138.573 17.717,138.573 17.717,184.987 18.476,184.987 18.476,138.573 	"/>
</g>
<g id="HATCH_14_">
	<polygon fill-rule="evenodd" clip-rule="evenodd" fill="#817F80" points="18.476,138.573 17.717,138.573 17.717,184.987 
		18.476,184.987 18.476,138.573 	"/>
</g>
<g id="POLYLINE_14_">
	
		<polyline fill="none" stroke="#000000" stroke-width="0" stroke-linecap="round" stroke-linejoin="round" stroke-miterlimit="10" points="
		24.806,164.041 13.089,164.041 13.089,163.059 24.806,163.059 24.806,164.041 	"/>
</g>
<g id="HATCH_15_">
	<polygon fill-rule="evenodd" clip-rule="evenodd" fill="#817F80" points="24.806,164.041 13.089,164.041 13.089,163.059 
		24.806,163.059 24.806,164.041 	"/>
</g>
<g id="INSERT_3_">
	<g id="POLYLINE_15_">
		
			<polyline fill="none" stroke="#000000" stroke-width="0" stroke-linecap="round" stroke-linejoin="round" stroke-miterlimit="10" points="
			67.961,106.841 2.039,106.841 2.039,95.337 67.961,95.337 67.961,106.841 		"/>
	</g>
	<g id="HATCH_16_">
		<polygon fill="#353B42" points="67.961,106.841 2.039,106.841 2.039,95.337 67.961,95.337 67.961,106.841 		"/>
	</g>
	<g id="POLYLINE_16_">
		
			<polyline fill="none" stroke="#000000" stroke-width="0" stroke-linecap="round" stroke-linejoin="round" stroke-miterlimit="10" points="
			63.664,112.299 5.864,112.299 5.864,106.841 63.664,106.841 63.664,112.299 		"/>
	</g>
	<g id="HATCH_17_">
		<polygon fill="#353B42" points="63.664,112.299 5.864,112.299 5.864,106.841 63.664,106.841 63.664,112.299 		"/>
	</g>
	<g id="POLYLINE_17_">
		
			<polyline fill="none" stroke="#000000" stroke-width="0" stroke-linecap="round" stroke-linejoin="round" stroke-miterlimit="10" points="
			23.997,14.212 19.428,14.212 19.428,95.337 23.997,95.337 23.997,14.212 		"/>
	</g>
	<g id="HATCH_18_">
		<polygon fill="#353B42" points="23.997,14.212 19.428,14.212 19.428,95.337 23.997,95.337 23.997,14.212 		"/>
	</g>
	<g id="POLYLINE_18_">
		
			<polyline fill="none" stroke="#000000" stroke-width="0" stroke-linecap="round" stroke-linejoin="round" stroke-miterlimit="10" points="
			50.348,14.212 45.779,14.212 45.779,95.337 50.348,95.337 50.348,14.212 		"/>
	</g>
	<g id="HATCH_19_">
		<polygon fill="#353B42" points="50.348,14.212 45.779,14.212 45.779,95.337 50.348,95.337 50.348,14.212 		"/>
	</g>
	<g id="POLYLINE_19_">
		
			<polyline fill="none" stroke="#000000" stroke-width="0" stroke-linecap="round" stroke-linejoin="round" stroke-miterlimit="10" points="
			9.494,95.411 7.688,95.411 7.688,0.102 9.494,0.102 9.494,95.411 		"/>
	</g>
	<g id="HATCH_20_">
		<polygon fill="#6F6E6E" points="9.494,95.411 7.688,95.411 7.688,0.102 9.494,0.102 9.494,95.411 		"/>
	</g>
	<g id="POLYLINE_20_">
		
			<polyline fill="none" stroke="#000000" stroke-width="0" stroke-linecap="round" stroke-linejoin="round" stroke-miterlimit="10" points="
			61.964,95.337 60.158,95.337 60.158,0.102 61.964,0.102 61.964,95.337 		"/>
	</g>
	<g id="HATCH_21_">
		<polygon fill="#6F6E6E" points="61.964,95.337 60.158,95.337 60.158,0.102 61.964,0.102 61.964,95.337 		"/>
	</g>
	<g id="POLYLINE_21_">
		
			<polyline fill="none" stroke="#000000" stroke-width="0" stroke-linecap="round" stroke-linejoin="round" stroke-miterlimit="10" points="
			60.158,55.758 9.494,55.758 9.494,53.89 60.158,53.89 60.158,55.758 		"/>
	</g>
	<g id="HATCH_22_">
		<polygon fill="#6F6E6E" points="60.158,55.759 9.494,55.759 9.494,53.89 60.158,53.89 60.158,55.759 		"/>
	</g>
	<g id="POLYLINE_22_">
		
			<polyline fill="none" stroke="#000000" stroke-width="0" stroke-linecap="round" stroke-linejoin="round" stroke-miterlimit="10" points="
			60.158,32.157 9.494,32.157 9.494,30.338 60.158,30.338 60.158,32.157 		"/>
	</g>
	<g id="HATCH_23_">
		<polygon fill="#6F6E6E" points="60.158,32.158 9.494,32.158 9.494,30.338 60.158,30.338 60.158,32.158 		"/>
	</g>
	<g id="POLYLINE_23_">
		
			<polyline fill="none" stroke="#000000" stroke-width="0" stroke-linecap="round" stroke-linejoin="round" stroke-miterlimit="10" points="
			60.158,14.212 9.494,14.212 9.494,12.245 60.158,12.245 60.158,14.212 		"/>
	</g>
	<g id="HATCH_24_">
		<polygon fill="#6F6E6E" points="60.158,14.212 9.494,14.212 9.494,12.246 60.158,12.246 60.158,14.212 		"/>
	</g>
	<g id="POLYLINE_24_">
		
			<polyline fill="none" stroke="#000000" stroke-width="0" stroke-linecap="round" stroke-linejoin="round" stroke-miterlimit="10" points="
			60.158,1.97 9.494,1.97 9.494,0.102 60.158,0.102 60.158,1.97 		"/>
	</g>
	<g id="HATCH_25_">
		<polygon fill="#6F6E6E" points="60.158,1.97 9.494,1.97 9.494,0.102 60.158,0.102 60.158,1.97 		"/>
	</g>
	<g id="POLYLINE_25_">
		
			<polyline fill="none" stroke="#000000" stroke-width="0" stroke-linecap="round" stroke-linejoin="round" stroke-miterlimit="10" points="
			60.158,53.89 9.494,53.89 9.494,32.157 60.158,32.157 60.158,53.89 		"/>
	</g>
	<g id="HATCH_26_">
		<polygon fill="#E3AC2F" points="60.158,53.89 9.494,53.89 9.494,32.158 60.158,32.158 60.158,53.89 		"/>
	</g>
	<g id="POLYLINE_26_">
		
			<polyline fill="none" stroke="#000000" stroke-width="0" stroke-linecap="round" stroke-linejoin="round" stroke-miterlimit="10" points="
			19.428,58.757 9.494,91.797 9.494,95.411 16.489,95.337 19.428,86.561 19.428,58.757 		"/>
	</g>
	<g id="HATCH_27_">
		<polygon fill="#6F6E6E" points="19.428,58.757 9.494,91.797 9.494,95.411 16.489,95.337 19.428,86.561 19.428,58.757 		"/>
	</g>
	<g id="POLYLINE_27_">
		
			<polyline fill="none" stroke="#000000" stroke-width="0" stroke-linecap="round" stroke-linejoin="round" stroke-miterlimit="10" points="
			50.348,58.757 60.158,91.73 60.158,95.337 53.25,95.264 50.348,86.504 50.348,58.757 		"/>
	</g>
	<g id="HATCH_28_">
		<polygon fill="#6F6E6E" points="50.348,58.757 60.158,91.73 60.158,95.337 53.25,95.264 50.348,86.506 50.348,58.757 		"/>
	</g>
	<path fill="#373B3B" d="M58.647,42.805c-0.035,0.242-0.063,0.485-0.12,0.725c-0.19,0.795-0.545,1.496-1.118,2.064
		c-0.462,0.456-1.003,0.757-1.639,0.853c-0.774,0.116-1.478-0.081-2.104-0.559c-0.827-0.632-1.296-1.504-1.496-2.535
		c-0.216-1.095-0.094-2.152,0.404-3.149c0.412-0.821,1.01-1.453,1.864-1.76c1.003-0.358,1.928-0.156,2.751,0.522
		c0.752,0.621,1.171,1.457,1.37,2.422c0.038,0.186,0.059,0.373,0.087,0.561V42.805z M57.055,42.289
		c0.006-0.09-0.011-0.266-0.042-0.44c-0.091-0.542-0.289-1.032-0.679-1.416c-0.407-0.4-0.882-0.546-1.423-0.343
		c-0.327,0.123-0.577,0.354-0.768,0.649c-0.448,0.694-0.558,1.46-0.403,2.271c0.103,0.539,0.321,1.021,0.733,1.383
		c0.416,0.36,0.882,0.468,1.395,0.251c0.292-0.123,0.521-0.337,0.702-0.602C56.909,43.545,57.053,42.982,57.055,42.289"/>
	<path fill="#373B3B" d="M45.436,40.888v-4.464c0-0.162,0.001-0.162,0.151-0.162c0.37,0,0.74-0.001,1.109,0
		c0.246,0,0.391,0.127,0.435,0.377c0.015,0.076,0.021,0.153,0.021,0.232c0,0.525,0,1.049,0,1.575c0,0.122,0.003,0.125,0.119,0.125
		c0.341,0.001,0.682,0.004,1.021,0c0.082,0,0.123,0.024,0.129,0.112c0.025,0.412-0.104,0.935-0.612,1.13
		c-0.164,0.063-0.328,0.116-0.5,0.141c-0.087,0.011-0.122,0.043-0.122,0.14c0.003,1.479,0.001,2.957,0.001,4.436
		c0,0.116,0.008,0.123,0.116,0.123c0.32,0.001,0.639,0,0.959,0c0.118,0.001,0.114,0.002,0.113,0.124
		c-0.003,0.298-0.003,0.597-0.006,0.895c-0.003,0.177-0.013,0.354-0.013,0.53c-0.001,0.068-0.028,0.092-0.092,0.092
		c-0.72-0.001-1.438,0.004-2.157-0.003c-0.284-0.003-0.51-0.2-0.607-0.509c-0.044-0.146-0.063-0.296-0.063-0.449
		C45.436,43.851,45.436,42.369,45.436,40.888"/>
	<path fill="#373B3B" d="M48.942,40.934v-4.521c0-0.15,0-0.15,0.141-0.15c0.352,0,0.703,0.01,1.057-0.003
		c0.297-0.011,0.496,0.107,0.502,0.534c0.011,0.547,0.005,1.094,0.005,1.641c0,0.138,0,0.138,0.133,0.138
		c0.341,0.001,0.682,0.003,1.021,0.001c0.065,0,0.109,0.019,0.113,0.095c0.019,0.311-0.032,0.602-0.215,0.855
		c-0.109,0.151-0.265,0.238-0.431,0.305c-0.154,0.062-0.313,0.107-0.476,0.128c-0.078,0.011-0.113,0.037-0.113,0.128
		c0.002,1.485,0.001,2.971,0,4.456c0,0.093,0.034,0.115,0.116,0.115c0.322-0.004,0.646-0.002,0.967-0.001
		c0.11,0,0.12,0.011,0.118,0.122c-0.016,0.46-0.019,0.92-0.021,1.379c-0.002,0.128-0.015,0.139-0.134,0.139c-0.681,0-1.36,0-2.041,0
		c-0.357,0-0.584-0.174-0.691-0.528c-0.04-0.125-0.055-0.254-0.055-0.385C48.942,43.897,48.942,42.414,48.942,40.934"/>
	<path fill="#373B3B" d="M15.837,35.945c0.191,0.03,0.384,0.047,0.576,0.081c1.081,0.194,1.932,0.762,2.575,1.684
		c0.264,0.38,0.472,0.783,0.55,1.251c0.034,0.201,0.04,0.405,0.013,0.612c-0.008,0.065-0.038,0.087-0.1,0.087
		c-0.5-0.01-1.001-0.019-1.503-0.022c-0.077-0.001-0.092-0.052-0.11-0.109c-0.172-0.521-0.451-0.965-0.869-1.309
		c-0.356-0.291-0.767-0.448-1.217-0.487c-0.521-0.044-1.026,0.024-1.5,0.263c-0.625,0.314-1.015,0.85-1.251,1.515
		c-0.166,0.463-0.241,0.944-0.261,1.439c-0.024,0.601,0.012,1.197,0.146,1.783c0.106,0.454,0.275,0.881,0.558,1.249
		c0.356,0.46,0.823,0.72,1.377,0.813c0.365,0.062,0.73,0.067,1.092-0.024c0.664-0.167,1.127-0.599,1.448-1.211
		c0.116-0.221,0.208-0.454,0.267-0.698c0.019-0.073,0.049-0.101,0.124-0.101c0.554,0.004,1.109,0.003,1.664,0.003
		c0.114,0,0.124,0.005,0.114,0.129c-0.063,0.719-0.229,1.407-0.579,2.037c-0.218,0.394-0.514,0.709-0.876,0.954
		c-0.347,0.231-0.721,0.388-1.118,0.487c-0.438,0.11-0.881,0.151-1.33,0.173c-0.655,0.03-1.288-0.073-1.908-0.288
		c-0.538-0.186-1.029-0.462-1.455-0.856c-0.515-0.476-0.841-1.071-1.033-1.756c-0.171-0.617-0.284-1.243-0.328-1.884
		c-0.071-1.069,0.015-2.12,0.315-3.148c0.199-0.675,0.595-1.205,1.119-1.638c0.686-0.565,1.473-0.88,2.338-0.996
		c0.071-0.01,0.141-0.021,0.21-0.031H15.837z"/>
	<path fill="#373B3B" d="M42.279,42.845c-0.745,0-1.486,0-2.23,0c-0.124,0-0.125,0.002-0.125,0.131
		c-0.007,0.58,0.165,1.088,0.572,1.496c0.525,0.524,1.387,0.671,2.017,0.173c0.207-0.165,0.374-0.366,0.498-0.604
		c0.032-0.06,0.068-0.083,0.134-0.081c0.483,0.001,0.968,0,1.451,0c0.105,0,0.119,0.02,0.101,0.128
		c-0.06,0.342-0.235,0.623-0.451,0.875c-0.615,0.727-1.371,1.209-2.289,1.396c-0.616,0.126-1.212,0.022-1.79-0.216
		c-0.459-0.191-0.866-0.47-1.21-0.844c-0.385-0.417-0.569-0.929-0.67-1.486c-0.12-0.666-0.171-1.336-0.139-2.011
		c0.029-0.582,0.128-1.152,0.336-1.699c0.21-0.546,0.574-0.944,1.06-1.23c0.516-0.303,1.074-0.46,1.661-0.508
		c0.543-0.047,1.077-0.004,1.599,0.173c0.688,0.233,1.181,0.696,1.452,1.393c0.283,0.722,0.438,1.477,0.446,2.259
		c0.002,0.18-0.021,0.358-0.045,0.538c-0.014,0.092-0.052,0.122-0.142,0.121C43.771,42.845,43.024,42.845,42.279,42.845
		 M41.422,39.974c-0.29,0.006-0.572,0.052-0.824,0.214c-0.439,0.284-0.608,0.728-0.656,1.237c-0.014,0.147-0.009,0.147,0.129,0.147
		c0.884,0,1.767,0,2.648,0c0.021,0,0.042-0.001,0.063,0c0.048,0.002,0.073-0.022,0.069-0.072c-0.005-0.078-0.007-0.155-0.017-0.232
		c-0.046-0.367-0.162-0.7-0.435-0.954C42.121,40.055,41.781,39.98,41.422,39.974"/>
	<path fill="#373B3B" d="M32.311,43.66c0.242,0,0.484,0.001,0.725,0c0.06-0.001,0.096,0.012,0.098,0.085
		c0.012,0.681,0.413,1.042,0.948,1.176c0.421,0.106,0.853,0.102,1.277,0.003c0.46-0.105,0.597-0.414,0.561-0.863
		c-0.012-0.138-0.086-0.241-0.195-0.319c-0.209-0.146-0.446-0.222-0.684-0.295c-0.521-0.166-1.058-0.278-1.584-0.435
		c-0.469-0.141-0.917-0.332-1.306-0.65c-0.519-0.426-0.718-0.987-0.657-1.661c0.025-0.29,0.08-0.572,0.189-0.841
		c0.254-0.628,0.711-1.031,1.314-1.262c0.602-0.229,1.226-0.279,1.862-0.238c0.353,0.024,0.698,0.095,1.024,0.237
		c0.817,0.356,1.281,1.013,1.479,1.895c0.027,0.119,0.043,0.237,0.054,0.358c0.007,0.065-0.016,0.095-0.083,0.098
		c-0.393,0.019-0.787,0.03-1.18,0.03c-0.007,0-0.013,0-0.019,0c-0.229-0.005-0.231-0.005-0.295-0.234
		c-0.144-0.52-0.485-0.828-0.979-0.943c-0.432-0.102-0.871-0.083-1.297,0.065c-0.282,0.099-0.457,0.301-0.477,0.62
		c-0.02,0.328,0.097,0.581,0.389,0.734c0.285,0.15,0.596,0.21,0.906,0.275c0.628,0.133,1.259,0.251,1.869,0.468
		c0.357,0.127,0.701,0.282,0.997,0.534c0.216,0.184,0.387,0.399,0.429,0.697c0.013,0.083,0.007,0.167,0.009,0.252
		c0.006,0.31,0.016,0.619-0.043,0.927c-0.161,0.855-0.661,1.394-1.438,1.68c-0.379,0.139-0.772,0.202-1.176,0.228
		c-0.569,0.038-1.137,0.012-1.694-0.132c-0.496-0.128-0.945-0.348-1.301-0.742c-0.34-0.378-0.516-0.831-0.551-1.344
		c-0.008-0.102-0.016-0.202-0.006-0.306c0.008-0.08,0.041-0.098,0.11-0.098C31.827,43.662,32.069,43.66,32.311,43.66"/>
	<path fill="#373B3B" d="M30.955,42.451c-0.002,1.028-0.269,1.969-0.876,2.788c-0.471,0.634-1.07,1.078-1.835,1.244
		c-0.84,0.184-1.606-0.013-2.292-0.538c-0.775-0.596-1.235-1.413-1.449-2.38c-0.285-1.294-0.118-2.522,0.575-3.646
		c0.488-0.789,1.161-1.336,2.062-1.518c0.913-0.183,1.723,0.077,2.423,0.695c0.761,0.672,1.171,1.554,1.337,2.565
		C30.942,41.923,30.963,42.186,30.955,42.451 M29.354,42.45c0.006-0.181-0.009-0.36-0.04-0.538c-0.094-0.538-0.292-1.02-0.677-1.408
		c-0.537-0.545-1.275-0.577-1.854-0.082c-0.213,0.186-0.378,0.414-0.502,0.671c-0.289,0.601-0.367,1.234-0.258,1.893
		c0.091,0.556,0.302,1.052,0.709,1.438c0.344,0.326,0.746,0.466,1.205,0.368c0.379-0.082,0.671-0.314,0.901-0.633
		C29.202,43.654,29.352,43.076,29.354,42.45"/>
	<path fill="#373B3B" d="M21.858,43.994c0,0.724,0,1.447,0,2.171c0,0.13-0.001,0.131-0.125,0.131c-0.468,0-0.936,0-1.406,0
		c-0.123,0-0.125-0.003-0.124-0.128c0.002-0.314,0.003-0.627,0.004-0.941c0.003-0.845,0.015-1.689,0.01-2.534
		c-0.005-0.484-0.023-0.97-0.01-1.453c0.018-0.608,0.195-1.16,0.608-1.61c0.282-0.305,0.625-0.517,1.005-0.661
		c0.64-0.244,1.298-0.393,1.986-0.361c0.027,0.001,0.054,0.002,0.08,0.003c0.073,0.001,0.105,0.033,0.104,0.115
		c-0.003,0.313-0.001,0.627-0.001,0.94c0,0.28,0,0.56,0,0.84c0,0.125,0,0.126-0.118,0.121c-0.392-0.015-0.782,0.015-1.165,0.109
		c-0.506,0.126-0.849,0.58-0.849,1.124C21.858,42.571,21.858,43.282,21.858,43.994"/>
	<path fill="#373B3B" d="M17.735,49.447v-0.52c0-0.184,0.001-0.366,0-0.55c-0.002-0.069,0.019-0.102,0.091-0.099
		c0.238,0.005,0.214-0.034,0.215,0.215c0.001,0.478,0.002,0.955,0.002,1.434c0,0.135-0.001,0.126-0.127,0.139
		c-0.12,0.013-0.179-0.038-0.234-0.146c-0.155-0.314-0.323-0.623-0.484-0.934c-0.018-0.031-0.028-0.067-0.059-0.091
		c-0.021,0.028-0.011,0.061-0.011,0.089c-0.001,0.316,0,0.635,0,0.95c-0.001,0.127-0.001,0.129-0.119,0.127
		c-0.197-0.001-0.188,0.035-0.188-0.192c0-0.487,0-0.975,0-1.462c0-0.128,0.001-0.119,0.126-0.132
		c0.118-0.011,0.18,0.033,0.232,0.145c0.162,0.331,0.338,0.656,0.508,0.983c0.009,0.018,0.018,0.032,0.025,0.048L17.735,49.447z"/>
	<path fill="#373B3B" d="M33.38,49.462v-0.826c0-0.047-0.001-0.093,0-0.141c0.005-0.244-0.05-0.214,0.227-0.215
		c0.05,0,0.071,0.023,0.069,0.073c-0.001,0.019,0,0.038,0,0.057c0,0.51,0.001,1.019,0.001,1.528c0,0.124-0.001,0.114-0.116,0.128
		c-0.125,0.016-0.185-0.041-0.239-0.15c-0.159-0.32-0.329-0.635-0.493-0.951c-0.017-0.029-0.035-0.058-0.06-0.105
		c-0.003,0.049-0.006,0.078-0.006,0.107c0,0.328-0.001,0.658,0.001,0.987c0.001,0.086-0.027,0.114-0.108,0.11
		c-0.21-0.007-0.187,0.023-0.188-0.193c0-0.49,0.003-0.981-0.001-1.473c-0.001-0.096,0.029-0.117,0.117-0.123
		c0.12-0.007,0.186,0.034,0.241,0.148c0.172,0.352,0.356,0.695,0.537,1.042C33.365,49.465,33.373,49.464,33.38,49.462"/>
	<path fill="#373B3B" d="M47.188,49.165c0.001-0.258,0.004-0.517-0.001-0.773c-0.001-0.082,0.024-0.118,0.107-0.112
		c0.185,0.011,0.371-0.021,0.555,0.018c0.233,0.05,0.35,0.183,0.378,0.419c0.029,0.225-0.073,0.454-0.261,0.548
		c-0.08,0.041-0.081,0.07-0.035,0.141c0.125,0.189,0.242,0.384,0.365,0.575c0.04,0.063,0.028,0.083-0.045,0.085
		c-0.234,0.005-0.234,0.008-0.354-0.201c-0.085-0.146-0.17-0.293-0.254-0.439c-0.017-0.029-0.031-0.061-0.065-0.072
		c-0.049-0.019-0.077-0.015-0.085,0.051c-0.019,0.184-0.01,0.366-0.009,0.549c0.001,0.08-0.017,0.117-0.104,0.113
		c-0.205-0.008-0.191,0.03-0.191-0.201C47.187,49.631,47.188,49.397,47.188,49.165 M47.493,48.812c0,0.059,0.005,0.117,0,0.176
		c-0.003,0.071,0.022,0.106,0.093,0.1c0.028-0.003,0.054,0,0.081-0.004c0.167-0.014,0.271-0.135,0.269-0.308
		c-0.005-0.165-0.087-0.238-0.274-0.243c-0.168-0.003-0.168-0.003-0.168,0.167C47.493,48.736,47.493,48.774,47.493,48.812"/>
	<path fill="#373B3B" d="M23.396,49.575c0,0.097-0.002,0.193,0,0.289c0.002,0.058-0.019,0.093-0.067,0.118
		c-0.198,0.104-0.408,0.139-0.626,0.109c-0.223-0.031-0.376-0.169-0.466-0.378c-0.158-0.369-0.163-0.743,0.018-1.105
		c0.202-0.405,0.703-0.511,1.041-0.23c0.053,0.044,0.068,0.083,0.021,0.139c-0.039,0.047-0.052,0.128-0.108,0.142
		c-0.053,0.015-0.089-0.061-0.134-0.093c-0.199-0.136-0.447-0.079-0.548,0.145c-0.14,0.313-0.127,0.631,0.022,0.934
		c0.113,0.228,0.321,0.211,0.518,0.151c0.04-0.013,0.036-0.052,0.036-0.085c0-0.144,0.001-0.286,0-0.43
		c-0.002-0.063,0.02-0.089,0.082-0.088c0.245,0.004,0.209-0.027,0.212,0.216C23.396,49.465,23.396,49.52,23.396,49.575"/>
	<path fill="#373B3B" d="M57.288,49.518c-0.265,0.007-0.201-0.049-0.283,0.224c-0.023,0.081-0.05,0.16-0.067,0.242
		c-0.014,0.064-0.047,0.083-0.108,0.081c-0.215-0.005-0.208,0.027-0.139-0.193c0.156-0.494,0.317-0.988,0.468-1.485
		c0.033-0.112,0.103-0.104,0.183-0.108c0.083-0.003,0.128,0.019,0.154,0.109c0.156,0.519,0.32,1.034,0.479,1.552
		c0.04,0.123,0.037,0.128-0.084,0.124c-0.261-0.006-0.205,0.055-0.288-0.229c-0.022-0.07-0.049-0.139-0.063-0.212
		c-0.016-0.086-0.059-0.113-0.136-0.105C57.364,49.521,57.326,49.518,57.288,49.518 M57.302,48.715
		c-0.005,0-0.011,0.001-0.014,0.001c-0.032,0.106-0.064,0.213-0.091,0.32c-0.075,0.281-0.122,0.225,0.182,0.231
		c0.051,0.001,0.071-0.018,0.055-0.072C57.389,49.035,57.345,48.873,57.302,48.715"/>
	<path fill="#373B3B" d="M27.489,49.172c0-0.261,0.002-0.521,0-0.782c-0.001-0.084,0.026-0.114,0.109-0.112
		c0.232,0.006,0.465,0.007,0.697,0c0.1-0.003,0.1,0.054,0.1,0.128c0,0.076-0.002,0.133-0.102,0.128
		c-0.14-0.006-0.279,0.001-0.419-0.002c-0.066-0.001-0.091,0.023-0.087,0.092c0.003,0.094,0.003,0.186,0,0.279
		c-0.003,0.064,0.019,0.09,0.081,0.088c0.108-0.004,0.215,0.001,0.322,0c0.058-0.002,0.083,0.022,0.08,0.082
		c-0.002,0.03-0.002,0.063,0,0.094c0.001,0.056-0.024,0.077-0.075,0.076c-0.107,0-0.216,0.002-0.323,0
		c-0.059-0.002-0.086,0.018-0.084,0.084c0.003,0.133,0.003,0.267,0,0.4c-0.002,0.065,0.023,0.087,0.084,0.085
		c0.148-0.002,0.298-0.001,0.446,0c0.104,0,0.107,0.008,0.11,0.129c0.001,0.078-0.008,0.128-0.104,0.126
		c-0.246-0.007-0.49-0.005-0.735-0.002c-0.072,0.002-0.1-0.024-0.099-0.101C27.492,49.699,27.491,49.436,27.489,49.172"/>
	<path fill="#373B3B" d="M42.206,49.17c0-0.262,0.002-0.522-0.002-0.783c0-0.08,0.022-0.11,0.102-0.107
		c0.236,0.004,0.472,0.005,0.707-0.002c0.095-0.002,0.099,0.05,0.099,0.124c-0.002,0.07,0.006,0.137-0.098,0.132
		c-0.144-0.006-0.286,0-0.43-0.001c-0.062-0.002-0.086,0.023-0.083,0.088c0.003,0.096,0.003,0.192,0,0.288
		c-0.002,0.061,0.021,0.083,0.078,0.082c0.106-0.003,0.209,0.001,0.314-0.002c0.064-0.002,0.09,0.022,0.092,0.09
		c0.005,0.16,0.005,0.164-0.147,0.164c-0.087,0-0.173,0.001-0.259,0c-0.051-0.001-0.08,0.015-0.078,0.074
		c0.002,0.14,0.002,0.279,0,0.419c-0.002,0.064,0.031,0.077,0.085,0.076c0.149-0.001,0.298,0.005,0.447-0.002
		c0.103-0.004,0.097,0.061,0.097,0.133c0,0.07,0.002,0.126-0.095,0.122c-0.246-0.005-0.489-0.003-0.735,0
		c-0.075,0.002-0.096-0.029-0.095-0.104C42.208,49.696,42.206,49.434,42.206,49.17"/>
	<path fill="#373B3B" d="M12.429,49.161c0-0.26,0.003-0.521-0.001-0.781c0-0.077,0.024-0.104,0.099-0.101
		c0.214,0.005,0.197-0.031,0.197,0.203c0.001,0.482,0,0.963,0,1.444c0,0.136,0,0.137-0.126,0.137
		c-0.187-0.001-0.167,0.019-0.168-0.175C12.429,49.646,12.429,49.404,12.429,49.161"/>
	<path fill="#373B3B" d="M38.081,49.179c0,0.257-0.004,0.516,0.002,0.772c0.003,0.092-0.027,0.117-0.112,0.113
		c-0.199-0.007-0.184,0.025-0.184-0.188c-0.001-0.487-0.001-0.975,0-1.461c0-0.136,0-0.137,0.125-0.136
		c0.189,0.001,0.168-0.02,0.169,0.173C38.083,48.694,38.081,48.937,38.081,49.179"/>
	<path fill="#373B3B" d="M52.341,49.161c0-0.26,0-0.521-0.002-0.781c-0.002-0.076,0.021-0.104,0.096-0.101
		c0.227,0.005,0.201-0.027,0.201,0.208c0.001,0.484,0.001,0.969,0,1.452c0,0.123-0.002,0.124-0.12,0.124
		c-0.2-0.001-0.175,0.022-0.175-0.185C52.339,49.64,52.341,49.401,52.341,49.161"/>
</g>
<rect y="217.333" fill="#84817F" width="70" height="6.667"/>
</svg>
