<?xml version="1.0" encoding="utf-8"?>
<!-- Generator: Adobe Illustrator 16.0.3, SVG Export Plug-In . SVG Version: 6.00 Build 0)  -->
<!DOCTYPE svg PUBLIC "-//W3C//DTD SVG 1.1//EN" "http://www.w3.org/Graphics/SVG/1.1/DTD/svg11.dtd">
<svg version="1.1" id="Capa_1" xmlns="http://www.w3.org/2000/svg" xmlns:xlink="http://www.w3.org/1999/xlink" x="0px" y="0px"
	 width="70px" height="90px" viewBox="0 0 70 90" enable-background="new 0 0 70 90" xml:space="preserve">
<rect x="29.093" y="5.557" fill="#E3AC2F" width="11.87" height="10.608"/>
<g>
	<rect x="24.059" fill="#CF6A13" width="10.07" height="2.273"/>
	<rect x="34.989" fill="#CF6A13" width="11.015" height="2.273"/>
	<rect x="33.179" y="3.957" fill="#CF6A13" width="3.705" height="7.746"/>
</g>
<rect x="21.113" y="3.957" fill="#E3AC2F" width="9.69" height="1.6"/>
<rect x="39.11" y="3.957" fill="#E3AC2F" width="9.69" height="1.6"/>
<g>
	<g>
		<rect x="24.605" y="5.999" fill="#B4B4B5" width="0.855" height="9.724"/>
		<rect x="26.386" y="5.999" fill="#B4B4B5" width="0.926" height="9.724"/>
		<rect x="22.752" y="8.524" fill="#B4B4B5" width="6.341" height="4.735"/>
		<rect x="25.46" y="7.704" fill="#B4B4B5" width="0.926" height="6.503"/>
		<rect x="21.826" y="10.166" fill="#B4B4B5" width="0.926" height="1.768"/>
	</g>
	<g>
		<rect x="44.597" y="5.999" fill="#B4B4B5" width="0.855" height="9.724"/>
		<rect x="42.744" y="5.999" fill="#B4B4B5" width="0.927" height="9.724"/>
		<rect x="40.963" y="8.524" fill="#B4B4B5" width="6.342" height="4.735"/>
		<rect x="43.671" y="7.704" fill="#B4B4B5" width="0.926" height="6.503"/>
		<rect x="47.305" y="10.166" fill="#B4B4B5" width="0.926" height="1.768"/>
	</g>
</g>
<g>
	<rect x="18.053" y="34.739" fill="#5D5D5D" width="33.155" height="41.253"/>
	<g>
		<rect x="19.347" y="27.298" fill="#5D5D5D" width="5.451" height="4.041"/>
		<g>
			<rect x="20.273" y="31.339" fill="#5D5D5D" width="2.636" height="0.853"/>
			<rect x="20.914" y="24.993" fill="#5D5D5D" width="1.158" height="2.305"/>
			<rect x="19.347" y="23.983" fill="#5D5D5D" width="3.563" height="1.01"/>
			<rect x="19.347" y="22.531" fill="#5D5D5D" width="1.781" height="1.452"/>
			<rect x="22.072" y="22.531" fill="#5D5D5D" width="0.837" height="1.452"/>
		</g>
	</g>
	<g>
		<rect x="45.117" y="27.219" fill="#5D5D5D" width="5.45" height="4.042"/>
		<g>
			<rect x="47.005" y="31.276" fill="#5D5D5D" width="2.637" height="0.853"/>
			<rect x="47.842" y="24.93" fill="#5D5D5D" width="1.158" height="2.305"/>
			<rect x="47.005" y="23.92" fill="#5D5D5D" width="3.563" height="1.01"/>
			<rect x="48.786" y="22.467" fill="#5D5D5D" width="1.781" height="1.453"/>
			<rect x="47.005" y="22.467" fill="#5D5D5D" width="0.837" height="1.453"/>
		</g>
	</g>
	<g>
		<rect x="20.166" y="78.79" fill="#5D5D5D" width="2.755" height="3.051"/>
		<rect x="19.192" y="81.841" fill="#5D5D5D" width="5.605" height="1.642"/>
		<rect x="23.207" y="81.083" fill="#5D5D5D" width="1.591" height="3.221"/>
		<rect x="20.831" y="83.482" fill="#5D5D5D" width="1.164" height="3.221"/>
		<rect x="19.288" y="85.903" fill="#5D5D5D" width="1.543" height="2.463"/>
		<rect x="21.995" y="85.903" fill="#5D5D5D" width="1.211" height="2.463"/>
	</g>
	<g>
		<rect x="46.994" y="78.885" fill="#5D5D5D" width="2.755" height="3.052"/>
		<rect x="45.117" y="81.937" fill="#5D5D5D" width="5.606" height="1.642"/>
		<rect x="45.117" y="81.179" fill="#5D5D5D" width="1.592" height="3.221"/>
		<rect x="47.92" y="83.578" fill="#5D5D5D" width="1.165" height="3.221"/>
		<rect x="49.085" y="85.999" fill="#5D5D5D" width="1.543" height="2.463"/>
		<rect x="46.709" y="85.999" fill="#5D5D5D" width="1.211" height="2.463"/>
	</g>
</g>
<g id="HATCH_29_">
	<polygon fill="#E3AC2F" points="24.892,16.165 45.212,16.165 45.212,90 24.892,90 24.892,16.165 	"/>
</g>
</svg>
