<?xml version="1.0" encoding="utf-8"?>
<!-- Generator: Adobe Illustrator 16.0.3, SVG Export Plug-In . SVG Version: 6.00 Build 0)  -->
<!DOCTYPE svg PUBLIC "-//W3C//DTD SVG 1.1//EN" "http://www.w3.org/Graphics/SVG/1.1/DTD/svg11.dtd">
<svg version="1.1"
	 id="svg1049" sodipodi:docname="trans.svg" inkscape:version="0.92.4 (5da689c313, 2019-01-14)" xmlns:inkscape="http://www.inkscape.org/namespaces/inkscape" xmlns:cc="http://creativecommons.org/ns#" xmlns:dc="http://purl.org/dc/elements/1.1/" xmlns:rdf="http://www.w3.org/1999/02/22-rdf-syntax-ns#" xmlns:svg="http://www.w3.org/2000/svg" xmlns:sodipodi="http://sodipodi.sourceforge.net/DTD/sodipodi-0.dtd"
	 xmlns="http://www.w3.org/2000/svg" xmlns:xlink="http://www.w3.org/1999/xlink" x="0px" y="0px" width="123.024px" height="50px"
	 viewBox="143.921 56.096 123.024 50" enable-background="new 143.921 56.096 123.024 50" xml:space="preserve">
<sodipodi:namedview  id="base" inkscape:window-maximized="1" inkscape:cy="157.51218" borderopacity="1.0" fit-margin-left="0" pagecolor="#ffffff" showgrid="false" inkscape:cx="341.39301" fit-margin-top="0" bordercolor="#666666" inkscape:zoom="3.6203867" inkscape:current-layer="layer1" inkscape:document-units="mm" inkscape:pageshadow="2" inkscape:pageopacity="0.0" fit-margin-right="0" inkscape:window-y="-9" inkscape:window-x="-9" inkscape:window-width="1920" inkscape:window-height="1001" fit-margin-bottom="0">
	</sodipodi:namedview>
<g id="layer1" transform="translate(-25.923711,-86.903338)" inkscape:groupmode="layer" inkscape:label="Capa 1">
	<path id="path3950" inkscape:connector-curvature="0" fill="none" stroke="#323232" stroke-width="0.2646" d="M211.704,172.296
		v13.458c0,0.083-0.068,0.151-0.151,0.151h-29.968c-0.084,0-0.151-0.068-0.151-0.151v-35.417c0-0.083,0.067-0.152,0.151-0.152
		h29.968c0.083,0,0.151,0.068,0.151,0.152v13.458"/>
	<path id="path3952" inkscape:connector-curvature="0" fill="none" stroke="#323232" stroke-width="0.2646" d="M181.434,151.92
		l-9.105,2.503v5.752h9.105"/>
	<path id="path3954" inkscape:connector-curvature="0" fill="none" stroke="#323232" stroke-width="0.2646" d="M181.434,184.171
		l-9.105-2.504v-5.752h9.105"/>
	<path id="path3956" inkscape:connector-curvature="0" fill="none" stroke="#323232" stroke-width="0.2646" d="M172.329,160.175
		l-2.485,7.87l2.485,7.87"/>
	<path id="path3958" inkscape:connector-curvature="0" fill="none" stroke="#323232" stroke-width="0.2646" d="M175.735,160.175
		h3.178v5.6h-3.178V160.175z"/>
	<path id="path3960" inkscape:connector-curvature="0" fill="none" stroke="#323232" stroke-width="0.2646" d="M175.659,170.315
		h3.33v5.601h-3.33V170.315z"/>
	<path id="path3962" inkscape:connector-curvature="0" fill="none" stroke="#323232" stroke-width="0.2646" d="M278.83,143.783
		h1.967v48.433h-1.967c-0.084,0-0.152-0.068-0.152-0.152v-48.129C278.678,143.851,278.746,143.783,278.83,143.783z"/>
	<path id="path3964" inkscape:connector-curvature="0" fill="none" stroke="#323232" stroke-width="0.2646" d="M280.797,192.217
		h0.578l1.844-0.757v-46.92l-1.844-0.756h-0.578"/>
	<path id="path3966" inkscape:connector-curvature="0" fill="none" stroke="#323232" stroke-width="0.2646" d="M263.211,162.551
		h5.508"/>
	<path id="path3968" inkscape:connector-curvature="0" fill="none" stroke="#323232" stroke-width="0.2646" d="M269.748,162.551
		h8.93v10.897h-25.426v-10.897h8.93"/>
	<path id="path3970" inkscape:connector-curvature="0" fill="none" stroke="#323232" stroke-width="0.2646" d="M253.099,143.783
		h-1.967v48.433h1.967c0.084,0,0.152-0.068,0.152-0.152v-48.129C253.252,143.851,253.183,143.783,253.099,143.783z"/>
	<path id="path3972" inkscape:connector-curvature="0" fill="none" stroke="#323232" stroke-width="0.2646" d="M251.133,192.217
		h-0.576l-1.846-0.757v-46.92l1.846-0.756h0.576"/>
	<path id="path3974" inkscape:connector-curvature="0" fill="none" stroke="#323232" stroke-width="0.2646" d="M253.252,164.065
		h25.426"/>
	<path id="path3976" inkscape:connector-curvature="0" fill="none" stroke="#323232" stroke-width="0.2646" d="M278.678,171.935
		h-25.426"/>
	<path id="path3978" inkscape:connector-curvature="0" fill="none" stroke="#323232" stroke-width="0.2646" d="M283.219,175.916
		h7.166v5.752l-7.166,1.97"/>
	<path id="path3980" inkscape:connector-curvature="0" fill="none" stroke="#323232" stroke-width="0.2646" d="M283.219,152.453
		l7.166,1.97v5.752h-7.166"/>
	<path id="path3982" inkscape:connector-curvature="0" fill="none" stroke="#323232" stroke-width="0.2646" d="M290.385,160.175
		l2.484,7.87l-2.484,7.87"/>
	<path id="path3984" inkscape:connector-curvature="0" fill="none" stroke="#323232" stroke-width="0.2646" d="M283.724,170.315
		h3.33v5.601h-3.33V170.315z"/>
	<path id="path3986" inkscape:connector-curvature="0" fill="none" stroke="#323232" stroke-width="0.2646" d="M283.801,160.175
		h3.178v5.6h-3.178V160.175z"/>
	<path id="path3988" inkscape:connector-curvature="0" fill="none" stroke="#323232" stroke-width="0.2646" d="M253.252,186.136
		h25.426v1.994h-25.426V186.136z"/>
	<path id="path3990" inkscape:connector-curvature="0" fill="none" stroke="#323232" stroke-width="0.2646" d="M253.252,147.87
		h25.426v1.994h-25.426V147.87z"/>
	<path id="path3992" inkscape:connector-curvature="0" fill="none" stroke="#323232" stroke-width="0.2646" d="M253.252,151.094
		h8.93"/>
	<path id="path3994" inkscape:connector-curvature="0" fill="none" stroke="#323232" stroke-width="0.2646" d="M269.748,151.094
		h8.93"/>
	<path id="path3996" inkscape:connector-curvature="0" fill="none" stroke="#323232" stroke-width="0.2646" d="M253.252,184.997
		h25.426"/>
	<path id="path3998" inkscape:connector-curvature="0" fill="none" stroke="#323232" stroke-width="0.2646" d="M253.252,175.916
		h25.426"/>
	<path id="path4000" inkscape:connector-curvature="0" fill="none" stroke="#323232" stroke-width="0.2646" d="M266.168,175.916
		v9.081"/>
	<path id="path4002" inkscape:connector-curvature="0" fill="none" stroke="#323232" stroke-width="0.2646" d="M253.252,160.175
		h8.93"/>
	<path id="path4004" inkscape:connector-curvature="0" fill="none" stroke="#323232" stroke-width="0.2646" d="M263.402,160.175
		h5.125"/>
	<path id="path4006" inkscape:connector-curvature="0" fill="none" stroke="#323232" stroke-width="0.2646" d="M269.748,160.175
		h8.93"/>
	<path id="path4008" inkscape:connector-curvature="0" fill="none" stroke="#323232" stroke-width="0.2646" d="M274.795,160.175
		v2.376"/>
	<path id="path4010" inkscape:connector-curvature="0" fill="none" stroke="#323232" stroke-width="0.2646" d="M274.795,173.448
		v2.468"/>
	<path id="path4012" inkscape:connector-curvature="0" fill="none" stroke="#323232" stroke-width="0.2646" d="M266.168,160.175
		v-1.741"/>
	<path id="path4014" inkscape:connector-curvature="0" fill="none" stroke="#323232" stroke-width="0.2646" d="M219.829,172.896
		h11.827c0.084,0,0.151,0.067,0.151,0.15v2.418c0,0.084-0.067,0.151-0.151,0.151h-11.827c-0.083,0-0.151-0.067-0.151-0.151v-2.418
		C219.678,172.964,219.745,172.896,219.829,172.896z"/>
	<path id="path4016" inkscape:connector-curvature="0" fill="none" stroke="#323232" stroke-width="0.2646" d="M219.829,160.505
		h11.827c0.084,0,0.151,0.068,0.151,0.151v2.417c0,0.083-0.067,0.151-0.151,0.151h-11.827c-0.083,0-0.151-0.068-0.151-0.151v-2.417
		C219.678,160.573,219.745,160.505,219.829,160.505z"/>
	<path id="path4018" inkscape:connector-curvature="0" fill="none" stroke="#323232" stroke-width="0.2646" d="M209.566,163.795
		h13.3"/>
	<path id="path4020" inkscape:connector-curvature="0" fill="none" stroke="#323232" stroke-width="0.2646" d="M228.618,163.795
		h13.3"/>
	<path id="path4022" inkscape:connector-curvature="0" fill="none" stroke="#323232" stroke-width="0.2646" d="M209.566,172.296
		h13.3"/>
	<path id="path4024" inkscape:connector-curvature="0" fill="none" stroke="#323232" stroke-width="0.2646" d="M228.618,172.296
		h13.3"/>
	<path id="path4026" inkscape:connector-curvature="0" fill="none" stroke="#323232" stroke-width="0.2646" d="M247.369,170.678
		v-5.267"/>
	<path id="path4028" inkscape:connector-curvature="0" fill="none" stroke="#323232" stroke-width="0.2646" d="M206.202,166.759
		v2.573"/>
	<path id="path4030" inkscape:connector-curvature="0" fill="none" stroke="#323232" stroke-width="0.2646" d="M222.867,171.98
		v0.916"/>
	<path id="path4032" inkscape:connector-curvature="0" fill="none" stroke="#323232" stroke-width="0.2646" d="M228.618,171.98
		v0.916"/>
	<path id="path4034" inkscape:connector-curvature="0" fill="none" stroke="#323232" stroke-width="0.2646" d="M248.711,184.997
		h-1.795"/>
	<path id="path4036" inkscape:connector-curvature="0" fill="none" stroke="#323232" stroke-width="0.2646" d="M225.992,176.067
		h8.285l3.027,3.329h9.471c0.084,0,0.152,0.068,0.152,0.151v0.001l-0.012,6.054c0,0.084-0.068,0.151-0.152,0.151h-20.772
		L225.992,176.067"/>
	<path id="path4038" inkscape:connector-curvature="0" fill="none" stroke="#323232" stroke-width="0.2646" d="M234.193,176.067
		l0.084-0.152h14.434"/>
	<path id="path4040" inkscape:connector-curvature="0" fill="none" stroke="#323232" stroke-width="0.2646" d="M225.992,185.754
		H214.61c-0.083,0-0.151-0.068-0.151-0.151l0,0v-11.987c0-0.084,0.068-0.151,0.151-0.151h2.773c0.083,0,0.151-0.068,0.151-0.151l0,0
		v-1.018"/>
	<path id="path4042" inkscape:connector-curvature="0" fill="none" stroke="#323232" stroke-width="0.2646" d="M214.459,175.916
		h-2.754"/>
	<path id="path4044" inkscape:connector-curvature="0" fill="none" stroke="#323232" stroke-width="0.2646" d="M211.704,184.997
		h2.754"/>
	<path id="path4046" inkscape:connector-curvature="0" fill="none" stroke="#323232" stroke-width="0.2646" d="M225.992,176.067
		v-0.451"/>
	<path id="path4048" inkscape:connector-curvature="0" fill="none" stroke="#323232" stroke-width="0.2646" d="M247.826,163.833
		c0.002-1.632-1.318-2.957-2.951-2.958c-1.631-0.002-2.955,1.319-2.957,2.95c0,0.003,0,0.006,0,0.008
		c-0.002,1.631,1.318,2.956,2.949,2.958c1.633,0.002,2.957-1.319,2.959-2.951C247.826,163.839,247.826,163.836,247.826,163.833z"/>
	<path id="path4050" inkscape:connector-curvature="0" fill="none" stroke="#323232" stroke-width="0.2646" d="M221.05,164.11h9.384
		c0.083,0,0.151,0.067,0.151,0.151v2.421c0,0.084-0.068,0.151-0.151,0.151h-9.384c-0.083,0-0.151-0.067-0.151-0.151v-2.421
		C220.899,164.178,220.967,164.11,221.05,164.11L221.05,164.11z"/>
	<path id="path4052" inkscape:connector-curvature="0" fill="none" stroke="#323232" stroke-width="0.2646" d="M221.05,169.256
		h9.384c0.083,0,0.151,0.068,0.151,0.152v2.421c0,0.083-0.068,0.151-0.151,0.151l0,0h-9.384c-0.083,0-0.151-0.068-0.151-0.151l0,0
		v-2.421C220.899,169.324,220.967,169.256,221.05,169.256L221.05,169.256z"/>
	<path id="path4054" inkscape:connector-curvature="0" fill="none" stroke="#323232" stroke-width="0.2646" d="M224.501,166.834
		h2.482v2.421h-2.482V166.834z"/>
	<path id="path4056" inkscape:connector-curvature="0" fill="none" stroke="#323232" stroke-width="0.2646" d="M247.826,172.258
		c0.002-1.632-1.318-2.957-2.951-2.959c-1.631-0.002-2.955,1.319-2.957,2.951c0,0.002,0,0.005,0,0.008
		c-0.002,1.631,1.318,2.956,2.949,2.957c1.633,0.002,2.957-1.318,2.959-2.95C247.826,172.262,247.826,172.26,247.826,172.258z"/>
	<path id="path4058" inkscape:connector-curvature="0" fill="none" stroke="#323232" stroke-width="0.2646" d="M209.566,163.833
		c0-1.632-1.323-2.955-2.954-2.955c-1.632,0-2.955,1.323-2.955,2.955c0,1.631,1.323,2.955,2.955,2.955
		C208.244,166.788,209.566,165.465,209.566,163.833L209.566,163.833z"/>
	<path id="path4060" inkscape:connector-curvature="0" fill="none" stroke="#323232" stroke-width="0.2646" d="M209.566,172.258
		c0-1.632-1.323-2.955-2.954-2.955c-1.632,0-2.955,1.322-2.955,2.955c0,1.631,1.323,2.954,2.955,2.954
		C208.244,175.212,209.566,173.888,209.566,172.258z"/>
	<path id="path4062" inkscape:connector-curvature="0" fill="none" stroke="#323232" stroke-width="0.2646" d="M222.867,164.11
		v-0.885"/>
	<path id="path4064" inkscape:connector-curvature="0" fill="none" stroke="#323232" stroke-width="0.2646" d="M228.618,164.11
		v-0.885"/>
	<path id="path4066" inkscape:connector-curvature="0" fill="none" stroke="#323232" stroke-width="0.2646" d="M248.711,151.094
		h-1.795"/>
	<path id="path4068" inkscape:connector-curvature="0" fill="none" stroke="#323232" stroke-width="0.2646" d="M225.992,160.023
		h8.285l3.027-3.33h9.471c0.084,0,0.152-0.068,0.152-0.151l0,0l-0.012-6.055c0-0.083-0.068-0.151-0.152-0.151h-20.772
		L225.992,160.023"/>
	<path id="path4070" inkscape:connector-curvature="0" fill="none" stroke="#323232" stroke-width="0.2646" d="M234.193,160.023
		l0.084,0.152h14.434"/>
	<path id="path4072" inkscape:connector-curvature="0" fill="none" stroke="#323232" stroke-width="0.2646" d="M225.992,150.337
		H214.61c-0.083,0-0.151,0.068-0.151,0.151v11.987c0,0.083,0.068,0.151,0.151,0.151h2.773c0.083,0,0.151,0.068,0.151,0.152v1.017"/>
	<path id="path4074" inkscape:connector-curvature="0" fill="none" stroke="#323232" stroke-width="0.2646" d="M214.459,160.175
		h-2.754"/>
	<path id="path4076" inkscape:connector-curvature="0" fill="none" stroke="#323232" stroke-width="0.2646" d="M211.704,151.094
		h2.754"/>
	<path id="path4078" inkscape:connector-curvature="0" fill="none" stroke="#323232" stroke-width="0.2646" d="M225.992,160.023
		v0.481"/>
	<path id="path4080" inkscape:connector-curvature="0" fill="none" stroke="#323232" stroke-width="0.2646" d="M263.476,159.269
		l-0.354,4.378c-0.02,0.236-0.217,0.417-0.453,0.417h-0.488v-14.201h7.566v14.201h-0.488c-0.236,0-0.434-0.182-0.453-0.417
		l-0.354-4.378c-0.037-0.472-0.432-0.835-0.904-0.835h-3.168C263.908,158.434,263.514,158.798,263.476,159.269L263.476,159.269z"/>
	<path id="path4082" inkscape:connector-curvature="0" fill="none" stroke="#323232" stroke-width="0.2646" d="M263.535,150.701
		h0.621c0.084,0,0.15,0.068,0.15,0.152v3.345c0,0.083-0.066,0.151-0.15,0.151h-0.621c-0.082,0-0.15-0.068-0.15-0.151v-3.345
		C263.385,150.769,263.453,150.701,263.535,150.701z"/>
	<path id="path4084" inkscape:connector-curvature="0" fill="none" stroke="#323232" stroke-width="0.2646" d="M264.947,150.701
		h0.621c0.084,0,0.152,0.068,0.152,0.152v3.345c0,0.083-0.068,0.151-0.152,0.151h-0.621c-0.082,0-0.15-0.068-0.15-0.151v-3.345
		C264.797,150.769,264.865,150.701,264.947,150.701z"/>
	<path id="path4086" inkscape:connector-curvature="0" fill="none" stroke="#323232" stroke-width="0.2646" d="M266.361,150.701
		h0.619c0.084,0,0.152,0.068,0.152,0.152v3.345c0,0.083-0.068,0.151-0.152,0.151h-0.619c-0.084,0-0.152-0.068-0.152-0.151v-3.345
		C266.209,150.769,266.277,150.701,266.361,150.701z"/>
	<path id="path4088" inkscape:connector-curvature="0" fill="none" stroke="#323232" stroke-width="0.2646" d="M267.773,150.701
		h0.621c0.082,0,0.15,0.068,0.15,0.152v3.345c0,0.083-0.068,0.151-0.15,0.151h-0.621c-0.084,0-0.15-0.068-0.15-0.151v-3.345
		C267.623,150.769,267.689,150.701,267.773,150.701z"/>
	<path id="path4090" inkscape:connector-curvature="0" fill="none" stroke="#323232" stroke-width="0.2646" d="M263.846,154.795
		v1.378"/>
	<path id="path4092" inkscape:connector-curvature="0" fill="none" stroke="#323232" stroke-width="0.2646" d="M264.301,156.628
		h0.113"/>
	<path id="path4094" inkscape:connector-curvature="0" fill="none" stroke="#323232" stroke-width="0.2646" d="M263.846,156.174
		c0,0.25,0.203,0.454,0.455,0.454l0,0"/>
	<path id="path4096" inkscape:connector-curvature="0" fill="none" stroke="#323232" stroke-width="0.2646" d="M264.736,156.494
		l0.279-0.279"/>
	<path id="path4098" inkscape:connector-curvature="0" fill="none" stroke="#323232" stroke-width="0.2646" d="M264.414,156.628
		c0.121,0,0.236-0.048,0.322-0.133"/>
	<path id="path4100" inkscape:connector-curvature="0" fill="none" stroke="#323232" stroke-width="0.2646" d="M265.336,156.083
		h1.258"/>
	<path id="path4102" inkscape:connector-curvature="0" fill="none" stroke="#323232" stroke-width="0.2646" d="M265.336,156.083
		c-0.121,0-0.236,0.048-0.32,0.133"/>
	<path id="path4104" inkscape:connector-curvature="0" fill="none" stroke="#323232" stroke-width="0.2646" d="M268.084,154.795
		v1.378"/>
	<path id="path4106" inkscape:connector-curvature="0" fill="none" stroke="#323232" stroke-width="0.2646" d="M267.631,156.628
		c0.25,0,0.453-0.204,0.453-0.454l0,0"/>
	<path id="path4108" inkscape:connector-curvature="0" fill="none" stroke="#323232" stroke-width="0.2646" d="M267.516,156.628
		h0.115"/>
	<path id="path4110" inkscape:connector-curvature="0" fill="none" stroke="#323232" stroke-width="0.2646" d="M266.916,156.216
		l0.277,0.279"/>
	<path id="path4112" inkscape:connector-curvature="0" fill="none" stroke="#323232" stroke-width="0.2646" d="M266.916,156.216
		c-0.086-0.085-0.201-0.133-0.322-0.133"/>
	<path id="path4114" inkscape:connector-curvature="0" fill="none" stroke="#323232" stroke-width="0.2646" d="M267.193,156.494
		c0.086,0.085,0.201,0.133,0.322,0.133"/>
	<path id="path4116" inkscape:connector-curvature="0" fill="none" stroke="#323232" stroke-width="0.2646" d="M262.182,154.795
		h7.566"/>
	<path id="path4118" inkscape:connector-curvature="0" fill="none" stroke="#323232" stroke-width="0.2646" d="M266.168,156.083
		v-1.288"/>
	<g id="g4210" transform="matrix(0.26458333,0,0,0.26458333,-39.270518,-153.01089)" inkscape:label="Visible (ISO)">
		<path id="path4122" inkscape:connector-curvature="0" fill="none" stroke="#323232" d="M1236.22,1205.434l0.332,0.57"/>
		<path id="path4124" inkscape:connector-curvature="0" fill="none" stroke="#323232" d="M1247.655,1209v-2.421"/>
		<path id="path4126" inkscape:connector-curvature="0" fill="none" stroke="#323232" d="M1246.267,1209.659l0.878-0.09"/>
		<path id="path4128" inkscape:connector-curvature="0" fill="none" stroke="#323232" d="M1245.655,1216.54v-6.197"/>
		<path id="path4130" inkscape:connector-curvature="0" fill="none" stroke="#323232" d="M1246.267,1217.227l0.878,0.089"/>
		<path id="path4132" inkscape:connector-curvature="0" fill="none" stroke="#323232" d="M1247.655,1220.305v-2.418"/>
		<path id="path4134" inkscape:connector-curvature="0" fill="none" stroke="#323232" d="M1236.228,1221.449l0.325-0.568"/>
		<path id="path4136" inkscape:connector-curvature="0" fill="none" stroke="#323232" d="M1235.231,1204.862h-16.336"/>
		<path id="path4138" inkscape:connector-curvature="0" fill="none" stroke="#323232" d="M1247.087,1206.005h-28.228"/>
		<path id="path4140" inkscape:connector-curvature="0" fill="none" stroke="#323232" d="M1247.087,1220.881h-28.228"/>
		<path id="path4142" inkscape:connector-curvature="0" fill="none" stroke="#323232" d="M1235.231,1222.021h-16.344"/>
		<path id="path4144" inkscape:connector-curvature="0" fill="none" stroke="#323232" d="M1218.895,1204.862
			c-0.015,0-0.022,0-0.037,0"/>
		<path id="path4146" inkscape:connector-curvature="0" fill="none" stroke="#323232" d="M1236.22,1205.434
			c-0.199-0.354-0.576-0.572-0.989-0.572"/>
		<path id="path4148" inkscape:connector-curvature="0" fill="none" stroke="#323232" d="M1247.655,1206.578
			c0-0.317-0.251-0.574-0.568-0.574l0,0"/>
		<path id="path4150" inkscape:connector-curvature="0" fill="none" stroke="#323232" d="M1247.146,1209.568
			c0.288-0.031,0.509-0.277,0.509-0.568"/>
		<path id="path4152" inkscape:connector-curvature="0" fill="none" stroke="#323232" d="M1246.267,1209.659
			c-0.347,0.037-0.613,0.332-0.613,0.685"/>
		<path id="path4154" inkscape:connector-curvature="0" fill="none" stroke="#323232" d="M1245.655,1216.54
			c0,0.354,0.266,0.646,0.613,0.687"/>
		<path id="path4156" inkscape:connector-curvature="0" fill="none" stroke="#323232" d="M1247.655,1217.884
			c0-0.288-0.222-0.535-0.509-0.568"/>
		<path id="path4158" inkscape:connector-curvature="0" fill="none" stroke="#323232" d="M1247.087,1220.881
			c0.318,0,0.568-0.258,0.568-0.576l0,0"/>
		<path id="path4160" inkscape:connector-curvature="0" fill="none" stroke="#323232" d="M1218.858,1222.021c0.015,0,0.022,0,0.03,0
			"/>
		<path id="path4162" inkscape:connector-curvature="0" fill="none" stroke="#323232" d="M1235.231,1222.021
			c0.413,0,0.79-0.218,0.997-0.572"/>
		<path id="path4164" inkscape:connector-curvature="0" fill="none" stroke="#323232" d="M810.455,1204.862
			c-0.408,0-0.786,0.218-0.989,0.572"/>
		<path id="path4166" inkscape:connector-curvature="0" fill="none" stroke="#323232" d="M827.785,1205.434
			c-0.205-0.354-0.581-0.572-0.991-0.572"/>
		<path id="path4168" inkscape:connector-curvature="0" fill="none" stroke="#323232" d="M798.603,1206.005
			c-0.316,0-0.572,0.258-0.572,0.574l0,0"/>
		<path id="path4170" inkscape:connector-curvature="0" fill="none" stroke="#323232" d="M798.031,1209
			c0,0.292,0.221,0.537,0.513,0.568"/>
		<path id="path4172" inkscape:connector-curvature="0" fill="none" stroke="#323232" d="M800.033,1210.343
			c0-0.352-0.266-0.646-0.615-0.685"/>
		<path id="path4174" inkscape:connector-curvature="0" fill="none" stroke="#323232" d="M799.419,1217.227
			c0.349-0.037,0.615-0.332,0.615-0.687"/>
		<path id="path4176" inkscape:connector-curvature="0" fill="none" stroke="#323232" d="M798.544,1217.316
			c-0.292,0.033-0.513,0.281-0.513,0.568"/>
		<path id="path4178" inkscape:connector-curvature="0" fill="none" stroke="#323232" d="M809.465,1205.434l-0.33,0.57"/>
		<path id="path4180" inkscape:connector-curvature="0" fill="none" stroke="#323232" d="M827.785,1205.434l0.33,0.57"/>
		<path id="path4182" inkscape:connector-curvature="0" fill="none" stroke="#323232" d="M798.031,1209v-2.421"/>
		<path id="path4184" inkscape:connector-curvature="0" fill="none" stroke="#323232" d="M799.419,1209.659l-0.875-0.09"/>
		<path id="path4186" inkscape:connector-curvature="0" fill="none" stroke="#323232" d="M800.033,1216.54v-6.197"/>
		<path id="path4188" inkscape:connector-curvature="0" fill="none" stroke="#323232" d="M799.419,1217.227l-0.875,0.089"/>
		<path id="path4190" inkscape:connector-curvature="0" fill="none" stroke="#323232" d="M798.031,1220.305v-2.418"/>
		<path id="path4192" inkscape:connector-curvature="0" fill="none" stroke="#323232" d="M827.787,1221.449l0.33-0.568"/>
		<path id="path4194" inkscape:connector-curvature="0" fill="none" stroke="#323232" d="M809.462,1221.449l-0.33-0.568"/>
		<path id="path4196" inkscape:connector-curvature="0" fill="none" stroke="#323232" d="M826.794,1204.862h-16.34"/>
		<path id="path4198" inkscape:connector-curvature="0" fill="none" stroke="#323232" d="M834.16,1206.005h-35.557"/>
		<path id="path4200" inkscape:connector-curvature="0" fill="none" stroke="#323232" d="M834.16,1220.881h-35.557"/>
		<path id="path4202" inkscape:connector-curvature="0" fill="none" stroke="#323232" d="M826.796,1222.021h-16.344"/>
		<path id="path4204" inkscape:connector-curvature="0" fill="none" stroke="#323232" d="M798.031,1220.305
			c0,0.317,0.257,0.576,0.572,0.576l0,0"/>
		<path id="path4206" inkscape:connector-curvature="0" fill="none" stroke="#323232" d="M809.462,1221.449
			c0.205,0.354,0.583,0.576,0.991,0.576"/>
		<path id="path4208" inkscape:connector-curvature="0" fill="none" stroke="#323232" d="M826.796,1222.021
			c0.41,0,0.788-0.218,0.991-0.572"/>
	</g>
	
		<path id="path4803" inkscape:connector-curvature="0" fill="#FFCC00" stroke="#323232" stroke-width="0.5524" stroke-linecap="square" d="
		M230.786,170.92c0.023-0.652,0.009-1.323-0.034-1.491l-0.077-0.306h-1.738h-1.738v-1.057v-1.057h1.663
		c1.292,0,1.696-0.04,1.811-0.178c0.1-0.12,0.135-0.607,0.108-1.492l-0.039-1.314l5.489,0h5.49l0.088,0.404
		c0.473,2.199,2.85,3.181,4.785,1.978l0.615-0.383v2.067v2.068l-0.279-0.256c-1.627-1.489-4.402-0.691-5.029,1.446l-0.223,0.754
		l-5.469,0.001h-5.468L230.786,170.92L230.786,170.92z"/>
	
		<path id="path4805" inkscape:connector-curvature="0" fill="#FFCC00" stroke="#323232" stroke-width="0.5524" stroke-linecap="square" d="
		M209.675,171.791c0-0.767-0.788-1.872-1.644-2.31c-0.268-0.136-0.762-0.281-1.1-0.32l-0.613-0.073l0-1.069l0.001-1.071l0.566-0.033
		c0.634-0.036,1.592-0.476,2.004-0.918c0.337-0.362,0.778-1.315,0.782-1.69l0.003-0.28h5.527h5.527l0.035,1.46l0.035,1.46
		l1.771,0.035l1.771,0.034v1.05v1.05l-1.771,0.034l-1.771,0.034v1.461v1.46h-5.563h-5.562V171.791z"/>
	
		<path id="path4807" inkscape:connector-curvature="0" fill="#FFCC00" stroke="#323232" stroke-width="0.5524" stroke-linecap="square" d="
		M217.754,163.181c0-0.26-0.067-0.54-0.149-0.622c-0.098-0.098-0.627-0.149-1.554-0.149h-1.404v-5.966v-5.967h5.593h5.593v4.91
		v4.909l-3.014,0.002c-1.658,0.001-3.086,0.047-3.174,0.104c-0.119,0.075-0.15,0.469-0.124,1.521l0.035,1.419l1.584,0.035
		c0.917,0.02,1.585,0.085,1.585,0.155c0,0.074-0.962,0.121-2.486,0.121h-2.486V163.181z"/>
	
		<path id="path4809" inkscape:connector-curvature="0" fill="#FFCC00" stroke="#323232" stroke-width="0.5524" stroke-linecap="square" d="
		M226.206,155.139v-4.661h10.254h10.254v3.045v3.045h-4.771h-4.773l-1.459,1.616l-1.459,1.616h-4.023h-4.022L226.206,155.139
		L226.206,155.139z"/>
	
		<path id="path4811" inkscape:connector-curvature="0" fill="#FFCC00" stroke="#323232" stroke-width="0.5524" stroke-linecap="square" d="
		M226.206,180.869v-4.661l4.008,0.009l4.01,0.009l1.49,1.667l1.492,1.668l4.754,0.002l4.754,0.001v2.983v2.983h-10.254h-10.255
		L226.206,180.869L226.206,180.869z"/>
	
		<path id="path4813" inkscape:connector-curvature="0" fill="#FFCC00" stroke="#323232" stroke-width="0.5524" stroke-linecap="square" d="
		M214.647,179.563v-5.966h1.478c1.611,0,1.629-0.009,1.629-0.756v-0.363h2.486c1.523,0,2.486,0.047,2.486,0.121
		c0,0.069-0.667,0.135-1.584,0.155l-1.585,0.034l-0.035,1.35c-0.023,0.889,0.014,1.408,0.108,1.522
		c0.116,0.14,0.734,0.174,3.174,0.174h3.03v4.848v4.847h-5.594h-5.593V179.563L214.647,179.563z"/>
	
		<path id="path4815" inkscape:connector-curvature="0" fill="#4D4D4D" stroke="#323232" stroke-width="0.5524" stroke-linecap="square" d="
		M251.314,168.004v-23.989h0.869h0.869v23.99v23.989h-0.869h-0.869V168.004z"/>
	
		<path id="path4817" inkscape:connector-curvature="0" fill="#4D4D4D" stroke="#323232" stroke-width="0.5524" stroke-linecap="square" d="
		M249.605,191.651l-0.777-0.318v-23.335v-23.335l0.809-0.324c0.445-0.178,0.92-0.324,1.057-0.324c0.246,0,0.246,0.125,0.246,23.99
		v23.989l-0.279-0.013C250.508,191.974,250.031,191.826,249.605,191.651L249.605,191.651z"/>
	
		<path id="path4819" inkscape:connector-curvature="0" fill="#4D4D4D" stroke="#323232" stroke-width="0.5524" stroke-linecap="square" d="
		M278.908,168.004v-23.989h0.869h0.871v23.99v23.989h-0.871h-0.869V168.004z"/>
	
		<path id="path4821" inkscape:connector-curvature="0" fill="#4D4D4D" stroke="#323232" stroke-width="0.5524" stroke-linecap="square" d="
		M281.019,168.004c0-23.165,0.008-23.989,0.229-23.989c0.125,0,0.559,0.134,0.963,0.299l0.736,0.299v23.391v23.39l-0.736,0.3
		c-0.404,0.164-0.838,0.299-0.963,0.299C281.027,191.993,281.019,191.168,281.019,168.004L281.019,168.004z"/>
	
		<path id="path4823" inkscape:connector-curvature="0" fill="#4D4D4D" stroke="#323232" stroke-width="0.5524" stroke-linecap="square" d="
		M283.383,156.383c0-2.017,0.041-3.666,0.094-3.665c0.051,0,1.574,0.412,3.387,0.912l3.293,0.91l0.033,2.754l0.033,2.755h-3.42
		h-3.42V156.383z"/>
	
		<path id="path4825" inkscape:connector-curvature="0" fill="#4D4D4D" stroke="#323232" stroke-width="0.5524" stroke-linecap="square" d="
		M283.383,179.759v-3.675h3.418h3.418v2.729v2.729l-0.527,0.143c-1.174,0.314-5.889,1.615-6.092,1.68
		S283.383,183.202,283.383,179.759z"/>
	
		<path id="path4827" inkscape:connector-curvature="0" fill="#4D4D4D" stroke="#323232" stroke-width="0.5524" stroke-linecap="square" d="
		M234.984,159.52c0.266-0.292,0.924-1.018,1.463-1.615l0.982-1.085l4.799-0.033l4.797-0.032l0.033-2.766l0.033-2.766h0.744h0.744
		v4.413v4.413h-7.039h-7.037L234.984,159.52z"/>
	
		<path id="path4829" inkscape:connector-curvature="0" fill="#4D4D4D" stroke="#323232" stroke-width="0.5524" stroke-linecap="square" d="
		M247.058,182.018l-0.033-2.766l-4.857-0.063l-4.855-0.062l-1.398-1.522l-1.396-1.522h7.031h7.031v4.35v4.351h-0.744h-0.742
		L247.058,182.018z"/>
	
		<path id="path4831" inkscape:connector-curvature="0" fill="#4D4D4D" stroke="#323232" stroke-width="0.5524" stroke-linecap="square" d="
		M211.912,155.636v-4.413h1.181h1.181v4.413v4.413h-1.181h-1.181V155.636z"/>
	
		<path id="path4833" inkscape:connector-curvature="0" fill="#4D4D4D" stroke="#323232" stroke-width="0.5524" stroke-linecap="square" d="
		M211.912,180.433v-4.35h1.181h1.181v4.35v4.351h-1.181h-1.181V180.433z"/>
	
		<path id="path4835" inkscape:connector-curvature="0" fill="#4D4D4D" stroke="#323232" stroke-width="0.5524" stroke-linecap="square" d="
		M177.047,182.793c-2.188-0.607-4.104-1.137-4.257-1.175c-0.279-0.07-0.279-0.073-0.279-2.803v-2.731h4.35h4.351v3.915
		c0,2.153-0.042,3.911-0.094,3.907C181.066,183.901,179.235,183.4,177.047,182.793L177.047,182.793z"/>
	
		<path id="path4837" inkscape:connector-curvature="0" fill="#4D4D4D" stroke="#323232" stroke-width="0.5524" stroke-linecap="square" d="
		M172.539,157.293l0.033-2.756l4.164-1.154c2.291-0.634,4.234-1.156,4.319-1.159c0.121-0.004,0.155,0.857,0.155,3.91v3.916h-4.353
		h-4.353L172.539,157.293z"/>
	
		<path id="path4839" inkscape:connector-curvature="0" fill="#D40000" stroke="#323232" stroke-width="0.5524" stroke-linecap="square" d="
		M205.792,166.467c-0.654-0.244-1.025-0.507-1.374-0.978c-0.872-1.173-0.767-2.575,0.268-3.579c0.9-0.873,1.949-1.086,3.001-0.609
		c1.119,0.507,1.664,1.337,1.672,2.547c0.005,0.63-0.057,0.857-0.371,1.364C208.302,166.324,206.892,166.877,205.792,166.467z"/>
	
		<path id="path4841" inkscape:connector-curvature="0" fill="#D40000" stroke="#323232" stroke-width="0.5524" stroke-linecap="square" d="
		M205.849,174.906c-1.591-0.496-2.446-2.287-1.783-3.732c0.983-2.143,3.924-2.249,4.988-0.181c0.794,1.544,0.012,3.414-1.632,3.902
		C206.654,175.124,206.547,175.124,205.849,174.906L205.849,174.906z"/>
	
		<path id="path4843" inkscape:connector-curvature="0" fill="#D40000" stroke="#323232" stroke-width="0.5524" stroke-linecap="square" d="
		M243.92,166.446c-1.049-0.4-1.799-1.485-1.799-2.605c0-0.801,0.324-1.5,0.961-2.074c0.873-0.787,1.932-0.927,2.998-0.396
		c1.525,0.76,2.012,2.608,1.066,4.047C246.514,166.381,245.008,166.86,243.92,166.446L243.92,166.446z"/>
	
		<path id="path4845" inkscape:connector-curvature="0" fill="#D40000" stroke="#323232" stroke-width="0.5524" stroke-linecap="square" d="
		M244.291,174.972c-0.596-0.145-1.115-0.46-1.521-0.923c-1.143-1.301-0.732-3.394,0.822-4.206c2.143-1.119,4.473,0.68,3.969,3.063
		c-0.178,0.836-1.141,1.823-1.988,2.036C244.932,175.103,244.836,175.105,244.291,174.972L244.291,174.972z"/>
	<path id="path4847" inkscape:connector-curvature="0" stroke="#323232" stroke-width="0.5524" stroke-linecap="square" d="
		M205.635,174.676c-1.474-0.713-2.066-2.187-1.418-3.525c0.792-1.635,2.961-2.038,4.216-0.783c1.608,1.607,0.646,4.26-1.648,4.544
		C206.385,174.96,206.106,174.903,205.635,174.676L205.635,174.676z"/>
	<path id="path4849" inkscape:connector-curvature="0" stroke="#323232" stroke-width="0.5524" stroke-linecap="square" d="
		M205.807,166.348c-0.743-0.276-1.19-0.672-1.529-1.352c-0.575-1.154-0.357-2.199,0.648-3.107c0.906-0.818,2.002-0.918,3.088-0.282
		c0.775,0.455,1.178,1.204,1.194,2.219c0.013,0.824-0.114,1.149-0.7,1.798C207.887,166.313,206.623,166.651,205.807,166.348z"/>
	<path id="path4851" inkscape:connector-curvature="0" stroke="#323232" stroke-width="0.5524" stroke-linecap="square" d="
		M244.043,166.37c-0.648-0.239-1.145-0.699-1.479-1.37c-0.686-1.374-0.189-2.822,1.201-3.516c0.699-0.349,1.125-0.389,1.84-0.175
		c1.83,0.549,2.477,2.896,1.188,4.314C246.183,166.295,244.834,166.661,244.043,166.37z"/>
	<path id="path4853" inkscape:connector-curvature="0" stroke="#323232" stroke-width="0.5524" stroke-linecap="square" d="
		M244.053,174.769c-1.238-0.454-1.891-1.435-1.779-2.671c0.109-1.206,0.816-2.06,1.961-2.365c1.73-0.463,3.227,0.733,3.227,2.58
		c0,0.612-0.063,0.844-0.344,1.262c-0.414,0.616-1.041,1.1-1.641,1.267C244.906,175,244.646,174.986,244.053,174.769
		L244.053,174.769z"/>
	<path id="path4855" inkscape:connector-curvature="0" stroke="#323232" stroke-width="0.0977" stroke-linecap="square" d="
		M222.986,163.66v-0.319h2.758h2.757v0.319v0.319h-2.757h-2.758V163.66z"/>
	<path id="path4857" inkscape:connector-curvature="0" stroke="#323232" stroke-width="0.1953" stroke-linecap="square" d="
		M222.988,172.446v-0.33h2.747h2.747v0.33v0.329h-2.747h-2.747V172.446z"/>
	<path id="path4859" inkscape:connector-curvature="0" stroke="#323232" stroke-width="0.1953" stroke-linecap="square" d="
		M224.614,168.052v-1.077h1.12h1.121v1.077v1.077h-1.121h-1.12V168.052z"/>
	<path id="path4861" inkscape:connector-curvature="0" stroke="#323232" stroke-width="0.0691" stroke-linecap="square" d="
		M175.02,165.957c0-0.004,0.021-0.019,0.048-0.033c0.044-0.023,0.249-0.025,2.226-0.024c1.197,0,2.196,0.001,2.218,0.001
		s0.057,0.015,0.078,0.032c0.037,0.03,0.026,0.03-2.267,0.031C176.056,165.964,175.02,165.961,175.02,165.957L175.02,165.957z"/>
	<path id="path4863" inkscape:connector-curvature="0" stroke="#323232" stroke-width="0.0691" stroke-linecap="square" d="
		M175.859,162.973v-2.68h1.468h1.468v2.68v2.681h-1.468h-1.468V162.973z"/>
	<path id="path4865" inkscape:connector-curvature="0" stroke="#323232" stroke-width="0.0691" stroke-linecap="square" d="
		M175.781,173.119v-2.68h1.546h1.546v2.68v2.681h-1.546h-1.546V173.119z"/>
	<path id="path4867" inkscape:connector-curvature="0" stroke="#323232" stroke-width="0.0691" stroke-linecap="square" d="
		M175.064,170.16c-0.037-0.03-0.026-0.03,2.263-0.03s2.299,0,2.263,0.03s-0.072,0.031-2.263,0.031
		C175.136,170.191,175.1,170.19,175.064,170.16z"/>
	<path id="path4871" inkscape:connector-curvature="0" stroke="#323232" stroke-width="0.0488" stroke-linecap="square" d="
		M283.916,162.977v-2.681h1.471h1.473v2.681v2.681h-1.473h-1.471V162.977z"/>
	<path id="path4873" inkscape:connector-curvature="0" stroke="#323232" stroke-width="0.0488" stroke-linecap="square" d="
		M283.332,165.927v-0.038h2.113c1.43,0,2.125,0.004,2.152,0.011c0.023,0.006,0.055,0.023,0.072,0.038l0.029,0.027l-2.184,0l-2.184,0
		V165.927L283.332,165.927z"/>
	<path id="path4875" inkscape:connector-curvature="0" stroke="#323232" stroke-width="0.0691" stroke-linecap="square" d="
		M283.846,173.111v-2.681h1.547h1.545v2.681v2.68h-1.545h-1.547V173.111z"/>
	<path id="path4877" inkscape:connector-curvature="0" stroke="#323232" stroke-width="0.0691" stroke-linecap="square" d="
		M283.334,170.167c0-0.031,0.006-0.031,2.178-0.031c2.08,0,2.178,0.001,2.141,0.027c-0.035,0.025-0.168,0.027-2.178,0.031
		C283.34,170.198,283.334,170.198,283.334,170.167z"/>
	
		<path id="path4881" inkscape:connector-curvature="0" fill="#4D4D4D" stroke="#323232" stroke-width="0.3906" stroke-linecap="square" d="
		M253.447,187.153v-0.835h12.523h12.525v0.835v0.835h-12.525h-12.523V187.153L253.447,187.153z"/>
	
		<path id="path4883" inkscape:connector-curvature="0" fill="#4D4D4D" stroke="#323232" stroke-width="0.3906" stroke-linecap="square" d="
		M253.447,180.429v-4.395h6.283h6.285v4.395v4.395h-6.285h-6.283V180.429z"/>
	
		<path id="path4885" inkscape:connector-curvature="0" fill="#4D4D4D" stroke="#323232" stroke-width="0.3906" stroke-linecap="square" d="
		M266.279,180.429v-4.395h6.107h6.109v4.395v4.395h-6.109h-6.107V180.429z"/>
	
		<path id="path4887" inkscape:connector-curvature="0" fill="#4D4D4D" stroke="#323232" stroke-width="0.3906" stroke-linecap="square" d="
		M253.447,148.833v-0.835h12.523h12.525v0.835v0.835h-12.525h-12.523V148.833L253.447,148.833z"/>
	
		<path id="path4889" inkscape:connector-curvature="0" fill="#4D4D4D" stroke="#323232" stroke-width="0.3906" stroke-linecap="square" d="
		M269.883,155.644v-4.395h4.307h4.307v4.395v4.395h-4.307h-4.307V155.644z"/>
	
		<path id="path4891" inkscape:connector-curvature="0" fill="#4D4D4D" stroke="#323232" stroke-width="0.3906" stroke-linecap="square" d="
		M253.447,155.644v-4.395h4.307h4.307v4.395v4.395h-4.307h-4.307V155.644z"/>
	
		<path id="path4893" inkscape:connector-curvature="0" fill="#4D4D4D" stroke="#323232" stroke-width="0.3906" stroke-linecap="square" d="
		M264.053,156.377c-0.033-0.032-0.059-0.369-0.059-0.747v-0.688h1.01h1.012v0.483v0.483h-0.436c-0.361,0-0.49,0.046-0.738,0.264
		C264.562,156.417,264.189,156.514,264.053,156.377L264.053,156.377z"/>
	
		<path id="path4895" inkscape:connector-curvature="0" fill="#4D4D4D" stroke="#323232" stroke-width="0.3906" stroke-linecap="square" d="
		M267.156,156.214c-0.119-0.127-0.352-0.244-0.543-0.275l-0.334-0.054v-0.472v-0.472h0.834h0.836v0.607
		c0,0.334-0.025,0.671-0.055,0.747C267.812,156.513,267.392,156.466,267.156,156.214L267.156,156.214z"/>
	
		<path id="path4897" inkscape:connector-curvature="0" fill="#4D4D4D" stroke="#323232" stroke-width="0.3906" stroke-linecap="square" d="
		M266.279,159.292v-0.747h0.617c0.672,0,1.166,0.156,1.297,0.41c0.045,0.088,0.105,0.369,0.135,0.623l0.053,0.461h-1.051h-1.051
		V159.292L266.279,159.292z"/>
	
		<path id="path4899" inkscape:connector-curvature="0" fill="#4D4D4D" stroke="#323232" stroke-width="0.3906" stroke-linecap="square" d="
		M263.603,159.577c0.064-0.529,0.27-0.87,0.574-0.956c0.117-0.032,0.578-0.063,1.025-0.068l0.813-0.009v0.747v0.747h-1.234h-1.232
		L263.603,159.577z"/>
	
		<path id="path4901" inkscape:connector-curvature="0" fill="#FFCC00" stroke="#323232" stroke-width="0.3906" stroke-linecap="square" d="
		M253.447,168.037v-3.779h12.523h12.525v3.779v3.779h-12.525h-12.523V168.037L253.447,168.037z"/>
	
		<path id="path4903" inkscape:connector-curvature="0" fill="#FFCC00" stroke="#323232" stroke-width="0.3906" stroke-linecap="square" d="
		M253.394,172.695v-0.615h12.568h12.568v0.615v0.615h-12.568h-12.568V172.695z"/>
	
		<path id="path4905" inkscape:connector-curvature="0" fill="#FFCC00" stroke="#323232" stroke-width="0.3906" stroke-linecap="square" d="
		M253.394,163.291v-0.615h4.307h4.307v0.615v0.615h-4.307h-4.307V163.291z"/>
	
		<path id="path4907" inkscape:connector-curvature="0" fill="#FFCC00" stroke="#323232" stroke-width="0.3906" stroke-linecap="square" d="
		M263.271,163.631c0.029-0.151,0.055-0.428,0.055-0.615v-0.34h2.637h2.637v0.34c0,0.188,0.025,0.464,0.055,0.615l0.055,0.275h-2.746
		h-2.746L263.271,163.631z"/>
	
		<path id="path4909" inkscape:connector-curvature="0" fill="#FFCC00" stroke="#323232" stroke-width="0.3906" stroke-linecap="square" d="
		M269.918,163.291v-0.615h4.307h4.307v0.615v0.615h-4.307h-4.307V163.291z"/>
	
		<path id="path4911" inkscape:connector-curvature="0" fill="#4D4D4D" stroke="#323232" stroke-width="0.3906" stroke-linecap="square" d="
		M274.928,174.673v-1.099h1.801h1.803v1.099v1.099h-1.803h-1.801V174.673z"/>
	
		<path id="path4913" inkscape:connector-curvature="0" fill="#4D4D4D" stroke="#323232" stroke-width="0.3906" stroke-linecap="square" d="
		M274.928,161.357v-1.055h1.801h1.803v1.055v1.055h-1.803h-1.801V161.357z"/>
	
		<path id="path4915" inkscape:connector-curvature="0" fill="#FFCC00" stroke="#323232" stroke-width="0.3906" stroke-linecap="square" d="
		M262.359,159.424v-4.482h0.658h0.66v0.707c0,0.633,0.021,0.729,0.215,0.923c0.299,0.299,0.67,0.282,1.045-0.048
		c0.283-0.247,0.346-0.264,1.025-0.264c0.678,0,0.742,0.017,1.023,0.264c0.377,0.331,0.746,0.347,1.045,0.048
		c0.193-0.194,0.217-0.29,0.217-0.923v-0.707h0.658h0.66v4.482v4.482h-0.209c-0.115,0-0.25-0.049-0.299-0.11
		c-0.051-0.06-0.178-1.157-0.283-2.438c-0.207-2.531-0.252-2.705-0.758-2.944c-0.412-0.196-3.703-0.194-4.117,0.003
		c-0.494,0.234-0.557,0.48-0.756,2.982c-0.102,1.256-0.225,2.333-0.275,2.395c-0.051,0.061-0.186,0.111-0.301,0.111h-0.209V159.424z
		"/>
	
		<path id="path4917" inkscape:connector-curvature="0" fill="#B3B3B3" stroke="#323232" stroke-width="0.3906" stroke-linecap="square" d="
		M262.359,152.348v-2.329h3.604h3.604v2.329v2.329h-3.604h-3.604V152.348z M264.363,154.396c0.148-0.149,0.148-3.595,0-3.744
		c-0.137-0.137-0.883-0.137-1.02,0c-0.148,0.149-0.148,3.595,0,3.744c0.057,0.058,0.287,0.105,0.51,0.105
		S264.305,154.454,264.363,154.396z M265.769,154.396c0.148-0.149,0.148-3.595,0-3.744c-0.137-0.137-0.883-0.137-1.02,0
		c-0.148,0.149-0.148,3.595,0,3.744c0.059,0.058,0.287,0.105,0.51,0.105S265.711,154.454,265.769,154.396z M267.176,154.396
		c0.148-0.149,0.148-3.595,0-3.744c-0.137-0.137-0.883-0.137-1.02,0c-0.148,0.149-0.148,3.595,0,3.744
		C266.293,154.533,267.039,154.533,267.176,154.396z M268.549,154.449c0.119-0.046,0.139-0.294,0.139-1.872
		c0-1.297-0.031-1.849-0.105-1.924c-0.137-0.137-0.883-0.137-1.02,0c-0.15,0.149-0.15,3.595,0,3.744
		C267.672,154.507,268.308,154.54,268.549,154.449z"/>
	
		<path id="path4919" inkscape:connector-curvature="0" fill="#B3B3B3" stroke="#323232" stroke-width="0.3906" stroke-linecap="square" d="
		M219.821,161.885v-1.23h5.932h5.932v1.23v1.23h-5.932h-5.932V161.885z"/>
	
		<path id="path4921" inkscape:connector-curvature="0" fill="#B3B3B3" stroke="#323232" stroke-width="0.3906" stroke-linecap="square" d="
		M219.821,174.233v-1.187h5.932h5.932v1.187v1.187h-5.932h-5.932V174.233z"/>
	
		<path id="path4923" inkscape:connector-curvature="0" fill="#B3B3B3" stroke="#323232" stroke-width="0.3906" stroke-linecap="square" d="
		M283.365,168.037v-1.845h3.646h3.648v0.352c0,0.28-0.033,0.352-0.158,0.352c-0.311,0-0.369,0.181-0.369,1.143
		s0.059,1.143,0.369,1.143c0.125,0,0.158,0.071,0.158,0.352v0.352h-3.648h-3.646V168.037z"/>
	
		<path id="path4925" inkscape:connector-curvature="0" fill="#B3B3B3" stroke="#323232" stroke-width="0.3906" stroke-linecap="square" d="
		M172.008,169.537c0-0.312,0.023-0.349,0.242-0.373l0.242-0.028l0.025-1.078l0.024-1.078l-0.266-0.054
		c-0.242-0.048-0.267-0.085-0.267-0.394v-0.34h4.658h4.658v1.846v1.846h-4.659h-4.658V169.537z"/>
	
		<path id="path4927" inkscape:connector-curvature="0" fill="#808080" stroke="#323232" stroke-width="0.3906" stroke-linecap="square" d="
		M181.588,168.081v-17.71h14.985h14.985v6.636v6.636h-0.915h-0.915l-0.06-0.354c-0.033-0.194-0.176-0.586-0.318-0.871
		c-0.818-1.637-2.935-2.176-4.492-1.145c-1.444,0.957-1.771,3.091-0.685,4.465c0.359,0.455,0.991,0.898,1.519,1.066l0.33,0.104
		v1.139c0,1.008-0.018,1.144-0.154,1.183c-0.485,0.143-1.295,0.631-1.562,0.942c-1.338,1.564-0.935,3.846,0.853,4.814
		c0.528,0.286,0.601,0.301,1.435,0.301c0.715,0,0.956-0.035,1.29-0.189c0.871-0.402,1.63-1.39,1.789-2.324l0.057-0.343h0.916h0.915
		v6.68v6.681h-14.985h-14.985V168.081z"/>
	
		<path id="path4929" inkscape:connector-curvature="0" fill="#808080" stroke="#323232" stroke-width="0.3906" stroke-linecap="square" d="
		M221.051,165.488v-1.23h4.702h4.702v1.23v1.231h-4.702h-4.702V165.488z"/>
	
		<path id="path4931" inkscape:connector-curvature="0" fill="#808080" stroke="#323232" stroke-width="0.3906" stroke-linecap="square" d="
		M221.051,170.63v-1.187h4.702h4.702v1.187v1.187h-4.702h-4.702V170.63z"/>
	
		<path id="path4933" inkscape:connector-curvature="0" fill="#D45500" stroke="#323232" stroke-width="0.3906" stroke-linecap="square" d="
		M263.56,154.179c-0.033-0.032-0.059-0.784-0.059-1.67v-1.611h0.307h0.309v1.67v1.67h-0.25
		C263.73,154.238,263.592,154.212,263.56,154.179z"/>
	
		<path id="path4935" inkscape:connector-curvature="0" fill="#D45500" stroke="#323232" stroke-width="0.3906" stroke-linecap="square" d="
		M264.967,154.179c-0.033-0.032-0.059-0.784-0.059-1.67v-1.611h0.307h0.309v1.67v1.67h-0.25
		C265.137,154.238,264.998,154.212,264.967,154.179z"/>
	
		<path id="path4937" inkscape:connector-curvature="0" fill="#D45500" stroke="#323232" stroke-width="0.3906" stroke-linecap="square" d="
		M266.402,152.574v-1.676h0.309h0.311l-0.025,1.648l-0.023,1.648l-0.285,0.028l-0.285,0.027V152.574L266.402,152.574z"/>
	
		<path id="path4939" inkscape:connector-curvature="0" fill="#D45500" stroke="#323232" stroke-width="0.1034" stroke-linecap="square" d="
		M267.808,152.568v1.67h0.307h0.309v-1.67v-1.67h-0.309h-0.307V152.568z"/>
</g>
<g id="layer1_1_" transform="translate(-38.111286,1.8575303)" inkscape:groupmode="layer" inkscape:label="Capa 1">
	<path id="path3810" inkscape:connector-curvature="0" fill="none" stroke="#323232" stroke-width="0.1323" d="M270.474,69.599
		h15.962c0.083,0,0.151,0.068,0.151,0.151v22.318c0,0.084-0.068,0.151-0.151,0.151l0,0h-15.962c-0.083,0-0.151-0.067-0.151-0.151
		l0,0V69.751C270.322,69.667,270.391,69.599,270.474,69.599z"/>
	<path id="path3812" inkscape:connector-curvature="0" fill="none" stroke="#323232" stroke-width="0.1323" d="M290.714,64.562
		h-24.519v32.726h24.519V64.562z"/>
	<path id="path3814" inkscape:connector-curvature="0" fill="none" stroke="#323232" stroke-width="0.1323" d="M266.195,97.288
		h24.519v2.119c0,0.083-0.067,0.151-0.151,0.151h-24.216c-0.084,0-0.151-0.068-0.151-0.151V97.288z"/>
	<path id="path3816" inkscape:connector-curvature="0" fill="none" stroke="#323232" stroke-width="0.1323" d="M266.347,62.292
		h24.216c0.084,0,0.151,0.068,0.151,0.151v2.119h-24.519v-2.119C266.195,62.36,266.263,62.292,266.347,62.292z"/>
	<path id="path3818" inkscape:connector-curvature="0" fill="none" stroke="#323232" stroke-width="0.1323" d="M291.925,62.823
		h0.848c0.083,0,0.151,0.068,0.151,0.151v3.481c0,0.084-0.068,0.151-0.151,0.151h-0.848c-0.084,0-0.151-0.067-0.151-0.151v-3.481
		C291.773,62.891,291.841,62.823,291.925,62.823z"/>
	<path id="path3820" inkscape:connector-curvature="0" fill="none" stroke="#323232" stroke-width="0.1323" d="M291.773,70.572
		v-3.057c0-0.084,0.067-0.151,0.151-0.151h0.848c0.083,0,0.151,0.067,0.151,0.151v3.481c0,0.083-0.068,0.151-0.151,0.151h-0.303"/>
	<path id="path3822" inkscape:connector-curvature="0" fill="none" stroke="#323232" stroke-width="0.1323" d="M291.358,100.92
		c0.334,0.48,0.994,0.599,1.475,0.265c0.48-0.335,0.599-0.995,0.265-1.475c-0.335-0.48-0.995-0.599-1.476-0.265
		c-0.034,0.023-0.066,0.05-0.098,0.077"/>
	<path id="path3824" inkscape:connector-curvature="0" fill="none" stroke="#323232" stroke-width="0.1323" d="M290.714,99.407
		l1.729,0.246"/>
	<path id="path3826" inkscape:connector-curvature="0" fill="none" stroke="#323232" stroke-width="0.1323" d="M292.833,100.465
		v-0.362"/>
	<path id="path3828" inkscape:connector-curvature="0" fill="none" stroke="#323232" stroke-width="0.1323" d="M292.379,100.92
		c0.251,0,0.454-0.203,0.454-0.454"/>
	<path id="path3830" inkscape:connector-curvature="0" fill="none" stroke="#323232" stroke-width="0.1323" d="M292.833,100.103
		c0-0.227-0.166-0.418-0.39-0.45"/>
	<path id="path3832" inkscape:connector-curvature="0" fill="none" stroke="#323232" stroke-width="0.1323" d="M292.379,100.92
		h-1.517"/>
	<path id="path3834" inkscape:connector-curvature="0" fill="none" stroke="#323232" stroke-width="0.1323" d="M287.686,99.558v0.24
		"/>
	<path id="path3836" inkscape:connector-curvature="0" fill="none" stroke="#323232" stroke-width="0.1323" d="M290.6,100.837
		c0.076,0.055,0.169,0.083,0.263,0.083"/>
	<path id="path3838" inkscape:connector-curvature="0" fill="none" stroke="#323232" stroke-width="0.1323" d="M290.6,100.837
		c-0.807-0.574-1.772-0.884-2.763-0.887"/>
	<path id="path3840" inkscape:connector-curvature="0" fill="none" stroke="#323232" stroke-width="0.1323" d="M287.686,99.798
		c0,0.083,0.067,0.15,0.15,0.151"/>
	<path id="path3842" inkscape:connector-curvature="0" fill="none" stroke="#323232" stroke-width="0.1323" d="M290.805,63.58
		h-0.091v2.271h0.091c0.084,0,0.151-0.068,0.151-0.151v-1.968C290.956,63.648,290.889,63.58,290.805,63.58z"/>
	<path id="path3844" inkscape:connector-curvature="0" fill="none" stroke="#323232" stroke-width="0.1323" d="M291.773,64.292
		h-0.817v0.847h0.817V64.292z"/>
	<path id="path3846" inkscape:connector-curvature="0" fill="none" stroke="#323232" stroke-width="0.1323" d="M290.714,68.121
		h0.091c0.084,0,0.151,0.067,0.151,0.151v1.968c0,0.083-0.067,0.151-0.151,0.151h-0.091V68.121z"/>
	<path id="path3848" inkscape:connector-curvature="0" fill="none" stroke="#323232" stroke-width="0.1323" d="M290.956,69.679
		h0.817v-0.848h-0.817V69.679z"/>
	<path id="path3850" inkscape:connector-curvature="0" fill="none" stroke="#323232" stroke-width="0.1323" d="M290.714,70.572
		h1.604c0.083,0,0.151,0.068,0.151,0.151v20.372c0,0.084-0.068,0.152-0.151,0.152l0,0h-1.604V70.572z"/>
	<path id="path3852" inkscape:connector-curvature="0" fill="none" stroke="#323232" stroke-width="0.1323" d="M291.925,98.997
		h0.848c0.083,0,0.151-0.068,0.151-0.152l0,0v-3.48c0-0.084-0.068-0.151-0.151-0.151h-0.848c-0.084,0-0.151,0.067-0.151,0.151v3.48
		C291.773,98.928,291.841,98.997,291.925,98.997L291.925,98.997L291.925,98.997z"/>
	<path id="path3854" inkscape:connector-curvature="0" fill="none" stroke="#323232" stroke-width="0.1323" d="M291.773,91.248
		v3.057c0,0.084,0.067,0.151,0.151,0.151h0.848c0.083,0,0.151-0.067,0.151-0.151v-3.481c0-0.083-0.068-0.151-0.151-0.151h-0.303"/>
	<path id="path3856" inkscape:connector-curvature="0" fill="none" stroke="#323232" stroke-width="0.1323" d="M290.805,98.24
		h-0.091v-2.271h0.091c0.084,0,0.151,0.068,0.151,0.151v1.968C290.956,98.172,290.889,98.24,290.805,98.24z"/>
	<path id="path3858" inkscape:connector-curvature="0" fill="none" stroke="#323232" stroke-width="0.1323" d="M291.773,97.528
		h-0.817V96.68h0.817V97.528z"/>
	<path id="path3860" inkscape:connector-curvature="0" fill="none" stroke="#323232" stroke-width="0.1323" d="M290.714,93.699
		h0.091c0.084,0,0.151-0.067,0.151-0.151l0,0V91.58c0-0.083-0.067-0.151-0.151-0.151h-0.091V93.699z"/>
	<path id="path3862" inkscape:connector-curvature="0" fill="none" stroke="#323232" stroke-width="0.1323" d="M290.956,92.14h0.817
		v0.848h-0.817V92.14z"/>
	<path id="path3864" inkscape:connector-curvature="0" fill="none" stroke="#323232" stroke-width="0.1323" d="M291.524,62.328
		c0.438,0.388,1.106,0.348,1.495-0.089s0.349-1.107-0.089-1.496c-0.438-0.388-1.106-0.349-1.495,0.089
		c-0.028,0.031-0.054,0.064-0.077,0.098"/>
	<path id="path3866" inkscape:connector-curvature="0" fill="none" stroke="#323232" stroke-width="0.1323" d="M290.714,62.443
		l1.729-0.247"/>
	<path id="path3868" inkscape:connector-curvature="0" fill="none" stroke="#323232" stroke-width="0.1323" d="M292.833,61.383
		v0.363"/>
	<path id="path3870" inkscape:connector-curvature="0" fill="none" stroke="#323232" stroke-width="0.1323" d="M292.833,61.383
		c0-0.25-0.203-0.454-0.454-0.454l0,0"/>
	<path id="path3872" inkscape:connector-curvature="0" fill="none" stroke="#323232" stroke-width="0.1323" d="M292.443,62.196
		c0.224-0.032,0.39-0.223,0.39-0.449"/>
	<path id="path3874" inkscape:connector-curvature="0" fill="none" stroke="#323232" stroke-width="0.1323" d="M292.379,60.93
		h-1.517"/>
	<path id="path3876" inkscape:connector-curvature="0" fill="none" stroke="#323232" stroke-width="0.1323" d="M287.686,62.292
		v-0.24"/>
	<path id="path3878" inkscape:connector-curvature="0" fill="none" stroke="#323232" stroke-width="0.1323" d="M290.862,60.93
		c-0.094,0-0.187,0.029-0.263,0.084"/>
	<path id="path3880" inkscape:connector-curvature="0" fill="none" stroke="#323232" stroke-width="0.1323" d="M287.837,61.901
		c0.99-0.003,1.956-0.313,2.763-0.887"/>
	<path id="path3882" inkscape:connector-curvature="0" fill="none" stroke="#323232" stroke-width="0.1323" d="M287.837,61.901
		c-0.083,0-0.15,0.068-0.15,0.151"/>
	<path id="path3884" inkscape:connector-curvature="0" fill="none" stroke="#323232" stroke-width="0.1323" d="M264.984,62.823
		h-0.848c-0.083,0-0.151,0.068-0.151,0.151v3.481c0,0.084,0.068,0.151,0.151,0.151h0.848c0.083,0,0.151-0.067,0.151-0.151v-3.481
		C265.136,62.891,265.067,62.823,264.984,62.823z"/>
	<path id="path3886" inkscape:connector-curvature="0" fill="none" stroke="#323232" stroke-width="0.1323" d="M265.136,70.572
		v-3.057c0-0.084-0.068-0.151-0.151-0.151h-0.848c-0.083,0-0.151,0.067-0.151,0.151v3.481c0,0.083,0.068,0.151,0.151,0.151h0.303"/>
	<path id="path3888" inkscape:connector-curvature="0" fill="none" stroke="#323232" stroke-width="0.1323" d="M265.385,99.522
		c-0.438-0.389-1.107-0.349-1.496,0.09c-0.389,0.438-0.349,1.106,0.089,1.495c0.438,0.389,1.107,0.349,1.496-0.089
		c0.027-0.031,0.054-0.064,0.077-0.099"/>
	<path id="path3890" inkscape:connector-curvature="0" fill="none" stroke="#323232" stroke-width="0.1323" d="M266.195,99.407
		l-1.729,0.246"/>
	<path id="path3892" inkscape:connector-curvature="0" fill="none" stroke="#323232" stroke-width="0.1323" d="M264.076,100.465
		v-0.362"/>
	<path id="path3894" inkscape:connector-curvature="0" fill="none" stroke="#323232" stroke-width="0.1323" d="M264.076,100.465
		c0,0.251,0.203,0.454,0.454,0.454"/>
	<path id="path3896" inkscape:connector-curvature="0" fill="none" stroke="#323232" stroke-width="0.1323" d="M264.466,99.653
		c-0.224,0.032-0.39,0.224-0.39,0.45"/>
	<path id="path3898" inkscape:connector-curvature="0" fill="none" stroke="#323232" stroke-width="0.1323" d="M264.53,100.92h1.517
		"/>
	<path id="path3900" inkscape:connector-curvature="0" fill="none" stroke="#323232" stroke-width="0.1323" d="M269.223,99.558v0.24
		"/>
	<path id="path3902" inkscape:connector-curvature="0" fill="none" stroke="#323232" stroke-width="0.1323" d="M266.046,100.92
		c0.095,0,0.187-0.029,0.264-0.083"/>
	<path id="path3904" inkscape:connector-curvature="0" fill="none" stroke="#323232" stroke-width="0.1323" d="M269.071,99.95
		c-0.99,0.003-1.955,0.313-2.762,0.887"/>
	<path id="path3906" inkscape:connector-curvature="0" fill="none" stroke="#323232" stroke-width="0.1323" d="M269.071,99.95
		c0.083-0.001,0.151-0.068,0.151-0.151"/>
	<path id="path3908" inkscape:connector-curvature="0" fill="none" stroke="#323232" stroke-width="0.1323" d="M266.104,63.58h0.091
		v2.271h-0.091c-0.084,0-0.151-0.068-0.151-0.151v-1.968C265.953,63.648,266.02,63.58,266.104,63.58z"/>
	<path id="path3910" inkscape:connector-curvature="0" fill="none" stroke="#323232" stroke-width="0.1323" d="M265.136,64.292
		h0.817v0.847h-0.817V64.292z"/>
	<path id="path3912" inkscape:connector-curvature="0" fill="none" stroke="#323232" stroke-width="0.1323" d="M266.195,68.121
		h-0.091c-0.084,0-0.151,0.067-0.151,0.151v1.968c0,0.083,0.067,0.151,0.151,0.151h0.091V68.121z"/>
	<path id="path3914" inkscape:connector-curvature="0" fill="none" stroke="#323232" stroke-width="0.1323" d="M265.953,69.679
		h-0.817v-0.848h0.817V69.679z"/>
	<path id="path3916" inkscape:connector-curvature="0" fill="none" stroke="#323232" stroke-width="0.1323" d="M266.195,70.572
		h-1.604c-0.084,0-0.151,0.068-0.151,0.151v20.372c0,0.084,0.067,0.152,0.151,0.152l0,0h1.604V70.572z"/>
	<path id="path3918" inkscape:connector-curvature="0" fill="none" stroke="#323232" stroke-width="0.1323" d="M264.984,98.997
		h-0.848c-0.083,0-0.151-0.068-0.151-0.152l0,0v-3.48c0-0.084,0.068-0.151,0.151-0.151h0.848c0.083,0,0.151,0.067,0.151,0.151v3.48
		C265.136,98.928,265.067,98.997,264.984,98.997L264.984,98.997L264.984,98.997z"/>
	<path id="path3920" inkscape:connector-curvature="0" fill="none" stroke="#323232" stroke-width="0.1323" d="M265.136,91.248
		v3.057c0,0.084-0.068,0.151-0.151,0.151h-0.848c-0.083,0-0.151-0.067-0.151-0.151v-3.481c0-0.083,0.068-0.151,0.151-0.151h0.303"/>
	<path id="path3922" inkscape:connector-curvature="0" fill="none" stroke="#323232" stroke-width="0.1323" d="M266.104,98.24h0.091
		v-2.271h-0.091c-0.084,0-0.151,0.068-0.151,0.151v1.968C265.953,98.172,266.02,98.24,266.104,98.24z"/>
	<path id="path3924" inkscape:connector-curvature="0" fill="none" stroke="#323232" stroke-width="0.1323" d="M265.136,97.528
		h0.817V96.68h-0.817V97.528z"/>
	<path id="path3926" inkscape:connector-curvature="0" fill="none" stroke="#323232" stroke-width="0.1323" d="M266.195,93.699
		h-0.091c-0.084,0-0.151-0.067-0.151-0.151l0,0V91.58c0-0.083,0.067-0.151,0.151-0.151h0.091V93.699z"/>
	<path id="path3928" inkscape:connector-curvature="0" fill="none" stroke="#323232" stroke-width="0.1323" d="M265.953,92.14
		h-0.817v0.848h0.817V92.14z"/>
	<path id="path3930" inkscape:connector-curvature="0" fill="none" stroke="#323232" stroke-width="0.1323" d="M265.551,60.93
		c-0.334-0.48-0.995-0.599-1.475-0.264c-0.48,0.334-0.599,0.995-0.265,1.475c0.334,0.48,0.995,0.598,1.476,0.264
		c0.033-0.024,0.066-0.049,0.098-0.077"/>
	<path id="path3932" inkscape:connector-curvature="0" fill="none" stroke="#323232" stroke-width="0.1323" d="M266.195,62.443
		l-1.729-0.247"/>
	<path id="path3934" inkscape:connector-curvature="0" fill="none" stroke="#323232" stroke-width="0.1323" d="M264.076,61.383
		v0.363"/>
	<path id="path3936" inkscape:connector-curvature="0" fill="none" stroke="#323232" stroke-width="0.1323" d="M264.53,60.93
		c-0.251,0-0.454,0.203-0.454,0.454l0,0"/>
	<path id="path3938" inkscape:connector-curvature="0" fill="none" stroke="#323232" stroke-width="0.1323" d="M264.076,61.747
		c0,0.226,0.166,0.417,0.39,0.449"/>
	<path id="path3940" inkscape:connector-curvature="0" fill="none" stroke="#323232" stroke-width="0.1323" d="M264.53,60.93h1.517"
		/>
	<path id="path3942" inkscape:connector-curvature="0" fill="none" stroke="#323232" stroke-width="0.1323" d="M269.223,62.292
		v-0.24"/>
	<path id="path3944" inkscape:connector-curvature="0" fill="none" stroke="#323232" stroke-width="0.1323" d="M266.31,61.014
		c-0.077-0.055-0.169-0.084-0.264-0.084"/>
	<path id="path3946" inkscape:connector-curvature="0" fill="none" stroke="#323232" stroke-width="0.1323" d="M266.31,61.014
		c0.807,0.574,1.771,0.884,2.762,0.887"/>
	<path id="path3948" inkscape:connector-curvature="0" fill="none" stroke="#323232" stroke-width="0.1323" d="M269.223,62.051
		c0-0.083-0.068-0.151-0.151-0.151"/>
	
		<path id="path5726" inkscape:connector-curvature="0" fill="#C83737" stroke="#323232" stroke-width="0.1381" stroke-linecap="square" d="
		M264.077,98.836c-0.021-0.055-0.037-0.848-0.037-1.764c0-1.358,0.016-1.679,0.088-1.738c0.053-0.044,0.244-0.065,0.481-0.055
		l0.394,0.019l0.017,1.818l0.017,1.818h-0.46C264.213,98.933,264.107,98.913,264.077,98.836L264.077,98.836z"/>
	
		<path id="path5728" inkscape:connector-curvature="0" fill="#C83737" stroke="#323232" stroke-width="0.0488" stroke-linecap="square" d="
		M264.082,94.362c-0.031-0.031-0.034-0.225-0.034-1.798c0-1.342,0.006-1.77,0.026-1.789c0.015-0.016,0.086-0.026,0.164-0.026h0.139
		v0.196c0,0.335,0.048,0.375,0.448,0.375h0.255v1.489c0,1.312-0.004,1.494-0.034,1.538c-0.033,0.047-0.044,0.049-0.481,0.049
		C264.186,94.396,264.11,94.39,264.082,94.362z"/>
	
		<path id="path5730" inkscape:connector-curvature="0" fill="#C83737" stroke="#323232" stroke-width="0.0488" stroke-linecap="square" d="
		M264.093,71.068c-0.036-0.021-0.039-0.131-0.039-1.812c0-1.746,0.002-1.789,0.044-1.812c0.024-0.014,0.215-0.022,0.462-0.022
		c0.248,0,0.438,0.009,0.463,0.022c0.042,0.022,0.043,0.063,0.043,1.538v1.516h-0.243c-0.261,0-0.373,0.029-0.415,0.106
		c-0.013,0.024-0.023,0.144-0.023,0.266v0.221h-0.127C264.188,71.09,264.114,71.08,264.093,71.068z"/>
	
		<path id="path5732" inkscape:connector-curvature="0" fill="#C83737" stroke="#323232" stroke-width="0.0488" stroke-linecap="square" d="
		M264.08,66.517c-0.02-0.021-0.025-0.449-0.025-1.797c0-0.973,0.008-1.782,0.019-1.797c0.014-0.021,0.129-0.027,0.499-0.022
		l0.481,0.006l0.006,1.789c0.005,1.303-0.001,1.796-0.019,1.818C265.007,66.554,264.121,66.557,264.08,66.517z"/>
	
		<path id="path5734" inkscape:connector-curvature="0" fill="#C83737" stroke="#323232" stroke-width="0.0691" stroke-linecap="square" d="
		M292.549,70.859c-0.019-0.316-0.053-0.345-0.42-0.345h-0.29l0.008-1.53l0.008-1.53l0.479-0.009
		c0.362-0.006,0.485,0.001,0.505,0.031c0.028,0.046,0.035,3.474,0.007,3.549c-0.014,0.034-0.06,0.049-0.152,0.049h-0.133
		L292.549,70.859z"/>
	
		<path id="path5736" inkscape:connector-curvature="0" fill="#C83737" stroke="#323232" stroke-width="0.0691" stroke-linecap="square" d="
		M291.853,66.499c-0.009-0.021-0.012-0.836-0.007-1.811l0.008-1.771l0.479-0.009c0.362-0.006,0.485,0.001,0.505,0.031
		c0.043,0.068,0.032,3.517-0.011,3.56C292.773,66.553,291.874,66.552,291.853,66.499L291.853,66.499z"/>
	
		<path id="path5738" inkscape:connector-curvature="0" fill="#C83737" stroke="#323232" stroke-width="0.0691" stroke-linecap="square" d="
		M291.867,94.369c-0.012-0.012-0.021-0.704-0.021-1.539v-1.518h0.28c0.366,0,0.403-0.032,0.403-0.342v-0.218h0.156h0.155
		l-0.008,1.811l-0.008,1.81l-0.468,0.009C292.1,94.386,291.879,94.381,291.867,94.369L291.867,94.369z"/>
	
		<path id="path5740" inkscape:connector-curvature="0" fill="#C83737" stroke="#323232" stroke-width="0.0691" stroke-linecap="square" d="
		M291.86,98.887c-0.009-0.021-0.012-0.836-0.007-1.811l0.008-1.771l0.489-0.008l0.49-0.009l-0.009,1.811l-0.007,1.811l-0.475,0.009
		C291.987,98.925,291.871,98.918,291.86,98.887L291.86,98.887z"/>
	
		<path id="path5744" inkscape:connector-curvature="0" fill="#4D4D4D" stroke="#323232" stroke-width="0.0691" stroke-linecap="square" d="
		M266.292,99.464c-0.011-0.012-0.02-0.487-0.02-1.057v-1.036h12.181h12.182l-0.009,1.049l-0.008,1.049l-12.152,0.008
		C271.782,99.481,266.304,99.475,266.292,99.464L266.292,99.464z"/>
	
		<path id="path5746" inkscape:connector-curvature="0" fill="#4D4D4D" stroke="#323232" stroke-width="0.0691" stroke-linecap="square" d="
		M264.39,100.822c-0.036-0.015-0.103-0.07-0.148-0.125c-0.078-0.093-0.082-0.117-0.082-0.42c0-0.299,0.006-0.328,0.079-0.415
		c0.043-0.052,0.105-0.103,0.139-0.112c0.152-0.049,1.756-0.258,1.766-0.231c0.006,0.017,0.051,0.051,0.1,0.076
		c0.075,0.038,0.316,0.046,1.504,0.046h1.416v0.089c0,0.05-0.018,0.104-0.039,0.12c-0.021,0.018-0.186,0.039-0.365,0.05
		c-0.752,0.041-1.499,0.273-2.153,0.667c-0.133,0.081-0.293,0.178-0.356,0.216c-0.112,0.067-0.141,0.069-0.955,0.067
		C264.831,100.849,264.425,100.837,264.39,100.822z"/>
	
		<path id="path5748" inkscape:connector-curvature="0" fill="#4D4D4D" stroke="#323232" stroke-width="0.0691" stroke-linecap="square" d="
		M290.523,100.694c-0.75-0.478-1.57-0.753-2.376-0.796c-0.179-0.01-0.344-0.031-0.365-0.048c-0.021-0.018-0.039-0.071-0.039-0.119
		v-0.089l1.464-0.009l1.463-0.009l0.057-0.069l0.057-0.069l0.863,0.124c0.524,0.076,0.892,0.143,0.935,0.171
		c0.145,0.095,0.181,0.194,0.181,0.495c0,0.225-0.012,0.302-0.061,0.382c-0.111,0.185-0.168,0.194-1.095,0.194h-0.836
		L290.523,100.694z"/>
	
		<path id="path5750" inkscape:connector-curvature="0" fill="#4D4D4D" stroke="#323232" stroke-width="0.0691" stroke-linecap="square" d="
		M263.509,60.362"/>
	
		<path id="path5754" inkscape:connector-curvature="0" fill="#D35F5F" stroke="#323232" stroke-width="0.0691" stroke-linecap="square" d="
		M292.074,101.285c-0.166-0.021-0.438-0.15-0.528-0.251c-0.05-0.056-0.036-0.057,0.468-0.057c0.581,0,0.64-0.016,0.786-0.208
		c0.08-0.104,0.088-0.14,0.098-0.435c0.009-0.279,0.002-0.339-0.057-0.459c-0.099-0.203-0.217-0.263-0.662-0.331
		c-0.209-0.032-0.4-0.06-0.426-0.061c-0.026-0.001,0.009-0.031,0.077-0.067c0.188-0.1,0.512-0.111,0.735-0.027
		c0.231,0.088,0.437,0.273,0.545,0.493c0.075,0.152,0.087,0.215,0.087,0.441c-0.001,0.226-0.014,0.288-0.083,0.421
		c-0.096,0.183-0.322,0.403-0.483,0.47C292.471,101.282,292.26,101.308,292.074,101.285L292.074,101.285z"/>
	
		<path id="path5756" inkscape:connector-curvature="0" fill="#D35F5F" stroke="#323232" stroke-width="0.0691" stroke-linecap="square" d="
		M264.531,101.285c-0.211-0.032-0.355-0.104-0.524-0.261c-0.214-0.201-0.297-0.4-0.297-0.716c0-0.188,0.016-0.283,0.065-0.393
		c0.094-0.206,0.269-0.385,0.472-0.484c0.151-0.074,0.214-0.086,0.44-0.086c0.213,0,0.288,0.014,0.389,0.068
		c0.067,0.038,0.11,0.069,0.093,0.07c-0.017,0.002-0.21,0.029-0.43,0.062c-0.456,0.067-0.574,0.126-0.674,0.33
		c-0.092,0.188-0.088,0.633,0.008,0.82c0.127,0.248,0.169,0.263,0.795,0.281l0.549,0.015l-0.108,0.082
		C265.064,101.256,264.812,101.326,264.531,101.285L264.531,101.285z"/>
	
		<path id="path5758" inkscape:connector-curvature="0" fill="#D35F5F" stroke="#323232" stroke-width="0.0691" stroke-linecap="square" d="
		M264.505,62.505c-0.313-0.063-0.593-0.285-0.729-0.583c-0.093-0.203-0.094-0.584,0-0.786c0.094-0.206,0.269-0.385,0.472-0.485
		c0.15-0.074,0.214-0.086,0.439-0.086c0.281,0,0.431,0.053,0.632,0.222l0.088,0.073h-0.494c-0.457,0-0.506,0.005-0.63,0.071
		c-0.208,0.11-0.279,0.27-0.278,0.625c0.002,0.542,0.127,0.667,0.753,0.753c0.219,0.03,0.396,0.064,0.396,0.076
		c0,0.035-0.222,0.112-0.373,0.13C264.703,62.525,264.579,62.52,264.505,62.505z"/>
	
		<path id="path5760" inkscape:connector-curvature="0" fill="#D35F5F" stroke="#323232" stroke-width="0.0691" stroke-linecap="square" d="
		M292.109,62.517c-0.12-0.016-0.356-0.102-0.356-0.131c0-0.012,0.176-0.046,0.392-0.077c0.398-0.055,0.516-0.093,0.606-0.196
		c0.119-0.135,0.151-0.253,0.151-0.548c0-0.366-0.069-0.524-0.278-0.634c-0.124-0.066-0.174-0.071-0.617-0.071h-0.481l0.06-0.065
		c0.032-0.036,0.129-0.103,0.215-0.147c0.132-0.069,0.194-0.082,0.419-0.083c0.227,0,0.289,0.012,0.44,0.086
		c0.202,0.1,0.377,0.279,0.472,0.485c0.103,0.222,0.094,0.618-0.018,0.831C292.923,62.33,292.494,62.565,292.109,62.517
		L292.109,62.517z"/>
	
		<path id="path5762" inkscape:connector-curvature="0" fill="#4D4D4D" stroke="#323232" stroke-width="0.0691" stroke-linecap="square" d="
		M266.271,63.44v-1.057l0.07-0.017c0.038-0.009,5.517-0.013,12.173-0.008l12.104,0.008l0.008,1.064l0.008,1.064h-12.181h-12.182
		V63.44z"/>
	
		<path id="path5764" inkscape:connector-curvature="0" fill="#4D4D4D" stroke="#323232" stroke-width="0.0691" stroke-linecap="square" d="
		M265.155,62.228l-0.791-0.118l-0.103-0.112l-0.104-0.112v-0.33v-0.33l0.106-0.105l0.105-0.105h0.897h0.898l0.247,0.157
		c0.504,0.321,1.143,0.585,1.684,0.695c0.135,0.027,0.426,0.067,0.646,0.088l0.402,0.038l0.01,0.117l0.01,0.116h-1.458
		c-1.418,0-1.458,0.002-1.514,0.062C266.122,62.369,266.102,62.368,265.155,62.228z"/>
	
		<path id="path5766" inkscape:connector-curvature="0" fill="#4D4D4D" stroke="#323232" stroke-width="0.0691" stroke-linecap="square" d="
		M290.711,62.289c-0.055-0.06-0.095-0.062-1.512-0.062h-1.456l0.001-0.085c0-0.047,0.011-0.101,0.023-0.12s0.205-0.051,0.427-0.071
		c0.867-0.079,1.561-0.311,2.267-0.76l0.278-0.176h0.898h0.897l0.104,0.103c0.082,0.083,0.106,0.137,0.124,0.28
		c0.025,0.2-0.002,0.433-0.064,0.553c-0.022,0.045-0.088,0.103-0.145,0.129c-0.085,0.039-1.573,0.272-1.736,0.271
		C290.79,62.352,290.742,62.323,290.711,62.289L290.711,62.289z"/>
	
		<path id="path5770" inkscape:connector-curvature="0" fill="#4D4D4D" stroke="#323232" stroke-width="0.1381" stroke-linecap="square" d="
		M266.298,80.941V64.658h12.15h12.149l0.003,0.621c0.001,0.343,0.002,7.376,0.002,15.631s-0.001,15.302-0.002,15.661l-0.003,0.653
		h-12.149h-12.15V80.941z M286.608,92.239c0.108-0.108,0.108-22.55,0-22.659c-0.058-0.057-1.949-0.074-8.138-0.074
		c-7.246,0-8.071,0.01-8.159,0.098s-0.098,1.199-0.098,11.307c0,10.106,0.01,11.219,0.098,11.307
		c0.088,0.087,0.913,0.098,8.159,0.098C284.659,92.314,286.551,92.297,286.608,92.239z"/>
	
		<path id="path5772" inkscape:connector-curvature="0" fill="#FFCC00" stroke="#323232" stroke-width="0.1381" stroke-linecap="square" d="
		M264.496,80.91V70.686h0.808h0.808V80.91v10.224h-0.808h-0.808V80.91z"/>
	
		<path id="path5774" inkscape:connector-curvature="0" fill="#FFCC00" stroke="#323232" stroke-width="0.1381" stroke-linecap="square" d="
		M290.784,80.91V70.686h0.808h0.809V80.91v10.224h-0.809h-0.808V80.91z"/>
	
		<path id="path5776" inkscape:connector-curvature="0" fill="#808080" stroke="#323232" stroke-width="0.1381" stroke-linecap="square" d="
		M270.399,80.91V69.692h8.049h8.048V80.91v11.218h-8.048h-8.049V80.91z"/>
	
		<path id="path5778" inkscape:connector-curvature="0" fill="#808080" stroke="#323232" stroke-width="0.0173" stroke-linecap="square" d="
		M265.197,64.714v-0.365h0.35h0.35v0.365v0.366h-0.35h-0.35V64.714z"/>
	
		<path id="path5780" inkscape:connector-curvature="0" fill="#808080" stroke="#323232" stroke-width="0.0173" stroke-linecap="square" d="
		M266.078,65.786c-0.013-0.004-0.032-0.017-0.042-0.027l-0.02-0.021l-0.002-1.014c-0.002-1.114-0.005-1.045,0.045-1.07
		c0.013-0.007,0.035-0.012,0.051-0.012h0.027v1.076v1.075h-0.019C266.11,65.793,266.092,65.79,266.078,65.786z"/>
	
		<path id="path5782" inkscape:connector-curvature="0" fill="#808080" stroke="#323232" stroke-width="0.0173" stroke-linecap="square" d="
		M265.197,69.255v-0.361h0.35h0.35v0.361v0.361h-0.35h-0.35V69.255z"/>
	
		<path id="path5784" inkscape:connector-curvature="0" fill="#808080" stroke="#323232" stroke-width="0.0173" stroke-linecap="square" d="
		M266.058,70.318c-0.047-0.025-0.044,0.039-0.044-1.067v-1.01l0.025-0.028c0.02-0.022,0.032-0.029,0.063-0.032l0.036-0.004v1.077
		v1.077l-0.029-0.001C266.093,70.33,266.069,70.325,266.058,70.318z"/>
	
		<path id="path5786" inkscape:connector-curvature="0" fill="#808080" stroke="#323232" stroke-width="0.0244" stroke-linecap="square" d="
		M265.196,97.107v-0.363h0.346h0.346v0.363v0.362h-0.346h-0.346V97.107z"/>
	
		<path id="path5788" inkscape:connector-curvature="0" fill="#808080" stroke="#323232" stroke-width="0.0244" stroke-linecap="square" d="
		M266.067,98.168c-0.025-0.012-0.038-0.026-0.047-0.058c-0.009-0.03-0.012-0.329-0.009-1.034l0.003-0.993l0.031-0.026
		c0.017-0.015,0.043-0.026,0.058-0.026h0.026v1.077c0,0.854-0.003,1.076-0.014,1.076C266.108,98.182,266.087,98.176,266.067,98.168
		L266.067,98.168z"/>
	
		<path id="path5792" inkscape:connector-curvature="0" fill="#808080" stroke="#323232" stroke-width="0.0244" stroke-linecap="square" d="
		M265.196,92.558v-0.362h0.346h0.346v0.362v0.362h-0.346h-0.346V92.558z"/>
	
		<path id="path5794" inkscape:connector-curvature="0" fill="#808080" stroke="#323232" stroke-width="0.0244" stroke-linecap="square" d="
		M266.041,93.606l-0.026-0.027v-1.015v-1.015l0.026-0.029c0.017-0.017,0.039-0.027,0.058-0.027h0.031v1.07v1.071h-0.031
		C266.08,93.635,266.058,93.625,266.041,93.606z"/>
	
		<path id="path5796" inkscape:connector-curvature="0" fill="#808080" stroke="#323232" stroke-width="0.0244" stroke-linecap="square" d="
		M290.779,92.563v-1.071h0.031c0.019,0,0.041,0.011,0.058,0.028l0.026,0.029v1.014v1.015l-0.026,0.028
		c-0.017,0.019-0.039,0.029-0.058,0.029h-0.031V92.563z"/>
	
		<path id="path5798" inkscape:connector-curvature="0" fill="#808080" stroke="#323232" stroke-width="0.0244" stroke-linecap="square" d="
		M291.02,92.569v-0.363h0.347h0.346v0.363v0.362h-0.346h-0.347V92.569z"/>
	
		<path id="path5800" inkscape:connector-curvature="0" fill="#808080" stroke="#323232" stroke-width="0.0244" stroke-linecap="square" d="
		M290.779,97.106v-1.077h0.026c0.015,0,0.041,0.012,0.058,0.026l0.031,0.027l0.004,0.992c0.002,0.706-0.001,1.005-0.01,1.034
		c-0.009,0.032-0.021,0.046-0.049,0.058c-0.021,0.009-0.043,0.016-0.05,0.016C290.782,98.182,290.779,97.839,290.779,97.106
		L290.779,97.106z"/>
	
		<path id="path5802" inkscape:connector-curvature="0" fill="#808080" stroke="#323232" stroke-width="0.0244" stroke-linecap="square" d="
		M291.02,97.106v-0.362h0.347h0.346v0.362v0.362h-0.346h-0.347V97.106z"/>
	
		<path id="path5804" inkscape:connector-curvature="0" fill="#808080" stroke="#323232" stroke-width="0.0244" stroke-linecap="square" d="
		M291.016,64.711v-0.362h0.346h0.347v0.362v0.362h-0.347h-0.346V64.711z"/>
	
		<path id="path5806" inkscape:connector-curvature="0" fill="#808080" stroke="#323232" stroke-width="0.0244" stroke-linecap="square" d="
		M290.774,64.716v-1.071h0.033c0.021,0,0.044,0.01,0.061,0.027l0.026,0.026v1.018v1.017l-0.026,0.027
		c-0.018,0.018-0.04,0.027-0.061,0.027h-0.033V64.716z"/>
	
		<path id="path5808" inkscape:connector-curvature="0" fill="#808080" stroke="#323232" stroke-width="0.0244" stroke-linecap="square" d="
		M290.774,69.254v-1.071h0.03c0.034,0.001,0.059,0.018,0.077,0.052c0.01,0.018,0.014,0.286,0.014,1.03v1.007l-0.027,0.026
		c-0.017,0.017-0.04,0.027-0.061,0.027h-0.033V69.254L290.774,69.254z"/>
	
		<path id="path5810" inkscape:connector-curvature="0" fill="#808080" stroke="#323232" stroke-width="0.0244" stroke-linecap="square" d="
		M291.016,69.258v-0.362h0.346h0.347v0.362v0.363h-0.347h-0.346V69.258z"/>
</g>
</svg>
